<?xml version="1.0" encoding="utf-8" standalone="no"?>
<!DOCTYPE svg PUBLIC "-//W3C//DTD SVG 1.1//EN"
  "http://www.w3.org/Graphics/SVG/1.1/DTD/svg11.dtd">
<svg xmlns:xlink="http://www.w3.org/1999/xlink" width="432pt" height="288pt" viewBox="0 0 432 288" xmlns="http://www.w3.org/2000/svg" version="1.1">
 <metadata>
  <rdf:RDF xmlns:dc="http://purl.org/dc/elements/1.1/" xmlns:cc="http://creativecommons.org/ns#" xmlns:rdf="http://www.w3.org/1999/02/22-rdf-syntax-ns#">
   <cc:Work>
    <dc:type rdf:resource="http://purl.org/dc/dcmitype/StillImage"/>
    <dc:date>2022-06-25T10:30:43.684179</dc:date>
    <dc:format>image/svg+xml</dc:format>
    <dc:creator>
     <cc:Agent>
      <dc:title>Matplotlib v3.5.0, https://matplotlib.org/</dc:title>
     </cc:Agent>
    </dc:creator>
   </cc:Work>
  </rdf:RDF>
 </metadata>
 <defs>
  <style type="text/css">*{stroke-linejoin: round; stroke-linecap: butt}</style>
 </defs>
 <g id="figure_1">
  <g id="patch_1">
   <path d="M 0 288 
L 432 288 
L 432 0 
L 0 0 
L 0 288 
z
" style="fill: none"/>
  </g>
  <g id="axes_1">
   <g id="patch_2">
    <path d="M 54 252 
L 388.8 252 
L 388.8 34.56 
L 54 34.56 
z
"/>
   </g>
   <g id="matplotlib.axis_1">
    <g id="xtick_1">
     <g id="line2d_1">
      <defs>
       <path id="m8cb7897b71" d="M 0 0 
L 0 3.5 
" style="stroke: #ffffff; stroke-width: 0.8"/>
      </defs>
      <g>
       <use xlink:href="#m8cb7897b71" x="108.225673" y="252" style="fill: #ffffff; stroke: #ffffff; stroke-width: 0.8"/>
      </g>
     </g>
     <g id="text_1">
      <!-- 1 -->
      <g style="fill: #ffffff" transform="translate(105.044423 266.598437)scale(0.1 -0.1)">
       <defs>
        <path id="DejaVuSans-31" d="M 794 531 
L 1825 531 
L 1825 4091 
L 703 3866 
L 703 4441 
L 1819 4666 
L 2450 4666 
L 2450 531 
L 3481 531 
L 3481 0 
L 794 0 
L 794 531 
z
" transform="scale(0.015625)"/>
       </defs>
       <use xlink:href="#DejaVuSans-31"/>
      </g>
     </g>
    </g>
    <g id="xtick_2">
     <g id="line2d_2">
      <g>
       <use xlink:href="#m8cb7897b71" x="164.694409" y="252" style="fill: #ffffff; stroke: #ffffff; stroke-width: 0.8"/>
      </g>
     </g>
     <g id="text_2">
      <!-- 2 -->
      <g style="fill: #ffffff" transform="translate(161.513159 266.598437)scale(0.1 -0.1)">
       <defs>
        <path id="DejaVuSans-32" d="M 1228 531 
L 3431 531 
L 3431 0 
L 469 0 
L 469 531 
Q 828 903 1448 1529 
Q 2069 2156 2228 2338 
Q 2531 2678 2651 2914 
Q 2772 3150 2772 3378 
Q 2772 3750 2511 3984 
Q 2250 4219 1831 4219 
Q 1534 4219 1204 4116 
Q 875 4013 500 3803 
L 500 4441 
Q 881 4594 1212 4672 
Q 1544 4750 1819 4750 
Q 2544 4750 2975 4387 
Q 3406 4025 3406 3419 
Q 3406 3131 3298 2873 
Q 3191 2616 2906 2266 
Q 2828 2175 2409 1742 
Q 1991 1309 1228 531 
z
" transform="scale(0.015625)"/>
       </defs>
       <use xlink:href="#DejaVuSans-32"/>
      </g>
     </g>
    </g>
    <g id="xtick_3">
     <g id="line2d_3">
      <g>
       <use xlink:href="#m8cb7897b71" x="221.163145" y="252" style="fill: #ffffff; stroke: #ffffff; stroke-width: 0.8"/>
      </g>
     </g>
     <g id="text_3">
      <!-- 3 -->
      <g style="fill: #ffffff" transform="translate(217.981895 266.598437)scale(0.1 -0.1)">
       <defs>
        <path id="DejaVuSans-33" d="M 2597 2516 
Q 3050 2419 3304 2112 
Q 3559 1806 3559 1356 
Q 3559 666 3084 287 
Q 2609 -91 1734 -91 
Q 1441 -91 1130 -33 
Q 819 25 488 141 
L 488 750 
Q 750 597 1062 519 
Q 1375 441 1716 441 
Q 2309 441 2620 675 
Q 2931 909 2931 1356 
Q 2931 1769 2642 2001 
Q 2353 2234 1838 2234 
L 1294 2234 
L 1294 2753 
L 1863 2753 
Q 2328 2753 2575 2939 
Q 2822 3125 2822 3475 
Q 2822 3834 2567 4026 
Q 2313 4219 1838 4219 
Q 1578 4219 1281 4162 
Q 984 4106 628 3988 
L 628 4550 
Q 988 4650 1302 4700 
Q 1616 4750 1894 4750 
Q 2613 4750 3031 4423 
Q 3450 4097 3450 3541 
Q 3450 3153 3228 2886 
Q 3006 2619 2597 2516 
z
" transform="scale(0.015625)"/>
       </defs>
       <use xlink:href="#DejaVuSans-33"/>
      </g>
     </g>
    </g>
    <g id="xtick_4">
     <g id="line2d_4">
      <g>
       <use xlink:href="#m8cb7897b71" x="277.631881" y="252" style="fill: #ffffff; stroke: #ffffff; stroke-width: 0.8"/>
      </g>
     </g>
     <g id="text_4">
      <!-- 4 -->
      <g style="fill: #ffffff" transform="translate(274.450631 266.598437)scale(0.1 -0.1)">
       <defs>
        <path id="DejaVuSans-34" d="M 2419 4116 
L 825 1625 
L 2419 1625 
L 2419 4116 
z
M 2253 4666 
L 3047 4666 
L 3047 1625 
L 3713 1625 
L 3713 1100 
L 3047 1100 
L 3047 0 
L 2419 0 
L 2419 1100 
L 313 1100 
L 313 1709 
L 2253 4666 
z
" transform="scale(0.015625)"/>
       </defs>
       <use xlink:href="#DejaVuSans-34"/>
      </g>
     </g>
    </g>
    <g id="xtick_5">
     <g id="line2d_5">
      <g>
       <use xlink:href="#m8cb7897b71" x="334.100617" y="252" style="fill: #ffffff; stroke: #ffffff; stroke-width: 0.8"/>
      </g>
     </g>
     <g id="text_5">
      <!-- 5 -->
      <g style="fill: #ffffff" transform="translate(330.919367 266.598437)scale(0.1 -0.1)">
       <defs>
        <path id="DejaVuSans-35" d="M 691 4666 
L 3169 4666 
L 3169 4134 
L 1269 4134 
L 1269 2991 
Q 1406 3038 1543 3061 
Q 1681 3084 1819 3084 
Q 2600 3084 3056 2656 
Q 3513 2228 3513 1497 
Q 3513 744 3044 326 
Q 2575 -91 1722 -91 
Q 1428 -91 1123 -41 
Q 819 9 494 109 
L 494 744 
Q 775 591 1075 516 
Q 1375 441 1709 441 
Q 2250 441 2565 725 
Q 2881 1009 2881 1497 
Q 2881 1984 2565 2268 
Q 2250 2553 1709 2553 
Q 1456 2553 1204 2497 
Q 953 2441 691 2322 
L 691 4666 
z
" transform="scale(0.015625)"/>
       </defs>
       <use xlink:href="#DejaVuSans-35"/>
      </g>
     </g>
    </g>
    <g id="text_6">
     <!-- Hours -->
     <g style="fill: #ffffff" transform="translate(206.751563 280.276563)scale(0.1 -0.1)">
      <defs>
       <path id="DejaVuSans-48" d="M 628 4666 
L 1259 4666 
L 1259 2753 
L 3553 2753 
L 3553 4666 
L 4184 4666 
L 4184 0 
L 3553 0 
L 3553 2222 
L 1259 2222 
L 1259 0 
L 628 0 
L 628 4666 
z
" transform="scale(0.015625)"/>
       <path id="DejaVuSans-6f" d="M 1959 3097 
Q 1497 3097 1228 2736 
Q 959 2375 959 1747 
Q 959 1119 1226 758 
Q 1494 397 1959 397 
Q 2419 397 2687 759 
Q 2956 1122 2956 1747 
Q 2956 2369 2687 2733 
Q 2419 3097 1959 3097 
z
M 1959 3584 
Q 2709 3584 3137 3096 
Q 3566 2609 3566 1747 
Q 3566 888 3137 398 
Q 2709 -91 1959 -91 
Q 1206 -91 779 398 
Q 353 888 353 1747 
Q 353 2609 779 3096 
Q 1206 3584 1959 3584 
z
" transform="scale(0.015625)"/>
       <path id="DejaVuSans-75" d="M 544 1381 
L 544 3500 
L 1119 3500 
L 1119 1403 
Q 1119 906 1312 657 
Q 1506 409 1894 409 
Q 2359 409 2629 706 
Q 2900 1003 2900 1516 
L 2900 3500 
L 3475 3500 
L 3475 0 
L 2900 0 
L 2900 538 
Q 2691 219 2414 64 
Q 2138 -91 1772 -91 
Q 1169 -91 856 284 
Q 544 659 544 1381 
z
M 1991 3584 
L 1991 3584 
z
" transform="scale(0.015625)"/>
       <path id="DejaVuSans-72" d="M 2631 2963 
Q 2534 3019 2420 3045 
Q 2306 3072 2169 3072 
Q 1681 3072 1420 2755 
Q 1159 2438 1159 1844 
L 1159 0 
L 581 0 
L 581 3500 
L 1159 3500 
L 1159 2956 
Q 1341 3275 1631 3429 
Q 1922 3584 2338 3584 
Q 2397 3584 2469 3576 
Q 2541 3569 2628 3553 
L 2631 2963 
z
" transform="scale(0.015625)"/>
       <path id="DejaVuSans-73" d="M 2834 3397 
L 2834 2853 
Q 2591 2978 2328 3040 
Q 2066 3103 1784 3103 
Q 1356 3103 1142 2972 
Q 928 2841 928 2578 
Q 928 2378 1081 2264 
Q 1234 2150 1697 2047 
L 1894 2003 
Q 2506 1872 2764 1633 
Q 3022 1394 3022 966 
Q 3022 478 2636 193 
Q 2250 -91 1575 -91 
Q 1294 -91 989 -36 
Q 684 19 347 128 
L 347 722 
Q 666 556 975 473 
Q 1284 391 1588 391 
Q 1994 391 2212 530 
Q 2431 669 2431 922 
Q 2431 1156 2273 1281 
Q 2116 1406 1581 1522 
L 1381 1569 
Q 847 1681 609 1914 
Q 372 2147 372 2553 
Q 372 3047 722 3315 
Q 1072 3584 1716 3584 
Q 2034 3584 2315 3537 
Q 2597 3491 2834 3397 
z
" transform="scale(0.015625)"/>
      </defs>
      <use xlink:href="#DejaVuSans-48"/>
      <use xlink:href="#DejaVuSans-6f" x="75.195312"/>
      <use xlink:href="#DejaVuSans-75" x="136.376953"/>
      <use xlink:href="#DejaVuSans-72" x="199.755859"/>
      <use xlink:href="#DejaVuSans-73" x="240.869141"/>
     </g>
    </g>
   </g>
   <g id="matplotlib.axis_2">
    <g id="ytick_1">
     <g id="line2d_6">
      <defs>
       <path id="m195695b7b3" d="M 0 0 
L -3.5 0 
" style="stroke: #ffffff; stroke-width: 0.8"/>
      </defs>
      <g>
       <use xlink:href="#m195695b7b3" x="54" y="244.024854" style="fill: #ffffff; stroke: #ffffff; stroke-width: 0.8"/>
      </g>
     </g>
     <g id="text_7">
      <!-- 50 -->
      <g style="fill: #ffffff" transform="translate(34.275 247.824073)scale(0.1 -0.1)">
       <defs>
        <path id="DejaVuSans-30" d="M 2034 4250 
Q 1547 4250 1301 3770 
Q 1056 3291 1056 2328 
Q 1056 1369 1301 889 
Q 1547 409 2034 409 
Q 2525 409 2770 889 
Q 3016 1369 3016 2328 
Q 3016 3291 2770 3770 
Q 2525 4250 2034 4250 
z
M 2034 4750 
Q 2819 4750 3233 4129 
Q 3647 3509 3647 2328 
Q 3647 1150 3233 529 
Q 2819 -91 2034 -91 
Q 1250 -91 836 529 
Q 422 1150 422 2328 
Q 422 3509 836 4129 
Q 1250 4750 2034 4750 
z
" transform="scale(0.015625)"/>
       </defs>
       <use xlink:href="#DejaVuSans-35"/>
       <use xlink:href="#DejaVuSans-30" x="63.623047"/>
      </g>
     </g>
    </g>
    <g id="ytick_2">
     <g id="line2d_7">
      <g>
       <use xlink:href="#m195695b7b3" x="54" y="214.704466" style="fill: #ffffff; stroke: #ffffff; stroke-width: 0.8"/>
      </g>
     </g>
     <g id="text_8">
      <!-- 75 -->
      <g style="fill: #ffffff" transform="translate(34.275 218.503685)scale(0.1 -0.1)">
       <defs>
        <path id="DejaVuSans-37" d="M 525 4666 
L 3525 4666 
L 3525 4397 
L 1831 0 
L 1172 0 
L 2766 4134 
L 525 4134 
L 525 4666 
z
" transform="scale(0.015625)"/>
       </defs>
       <use xlink:href="#DejaVuSans-37"/>
       <use xlink:href="#DejaVuSans-35" x="63.623047"/>
      </g>
     </g>
    </g>
    <g id="ytick_3">
     <g id="line2d_8">
      <g>
       <use xlink:href="#m195695b7b3" x="54" y="185.384078" style="fill: #ffffff; stroke: #ffffff; stroke-width: 0.8"/>
      </g>
     </g>
     <g id="text_9">
      <!-- 100 -->
      <g style="fill: #ffffff" transform="translate(27.9125 189.183296)scale(0.1 -0.1)">
       <use xlink:href="#DejaVuSans-31"/>
       <use xlink:href="#DejaVuSans-30" x="63.623047"/>
       <use xlink:href="#DejaVuSans-30" x="127.246094"/>
      </g>
     </g>
    </g>
    <g id="ytick_4">
     <g id="line2d_9">
      <g>
       <use xlink:href="#m195695b7b3" x="54" y="156.063689" style="fill: #ffffff; stroke: #ffffff; stroke-width: 0.8"/>
      </g>
     </g>
     <g id="text_10">
      <!-- 125 -->
      <g style="fill: #ffffff" transform="translate(27.9125 159.862908)scale(0.1 -0.1)">
       <use xlink:href="#DejaVuSans-31"/>
       <use xlink:href="#DejaVuSans-32" x="63.623047"/>
       <use xlink:href="#DejaVuSans-35" x="127.246094"/>
      </g>
     </g>
    </g>
    <g id="ytick_5">
     <g id="line2d_10">
      <g>
       <use xlink:href="#m195695b7b3" x="54" y="126.743301" style="fill: #ffffff; stroke: #ffffff; stroke-width: 0.8"/>
      </g>
     </g>
     <g id="text_11">
      <!-- 150 -->
      <g style="fill: #ffffff" transform="translate(27.9125 130.54252)scale(0.1 -0.1)">
       <use xlink:href="#DejaVuSans-31"/>
       <use xlink:href="#DejaVuSans-35" x="63.623047"/>
       <use xlink:href="#DejaVuSans-30" x="127.246094"/>
      </g>
     </g>
    </g>
    <g id="ytick_6">
     <g id="line2d_11">
      <g>
       <use xlink:href="#m195695b7b3" x="54" y="97.422913" style="fill: #ffffff; stroke: #ffffff; stroke-width: 0.8"/>
      </g>
     </g>
     <g id="text_12">
      <!-- 175 -->
      <g style="fill: #ffffff" transform="translate(27.9125 101.222131)scale(0.1 -0.1)">
       <use xlink:href="#DejaVuSans-31"/>
       <use xlink:href="#DejaVuSans-37" x="63.623047"/>
       <use xlink:href="#DejaVuSans-35" x="127.246094"/>
      </g>
     </g>
    </g>
    <g id="ytick_7">
     <g id="line2d_12">
      <g>
       <use xlink:href="#m195695b7b3" x="54" y="68.102524" style="fill: #ffffff; stroke: #ffffff; stroke-width: 0.8"/>
      </g>
     </g>
     <g id="text_13">
      <!-- 200 -->
      <g style="fill: #ffffff" transform="translate(27.9125 71.901743)scale(0.1 -0.1)">
       <use xlink:href="#DejaVuSans-32"/>
       <use xlink:href="#DejaVuSans-30" x="63.623047"/>
       <use xlink:href="#DejaVuSans-30" x="127.246094"/>
      </g>
     </g>
    </g>
    <g id="ytick_8">
     <g id="line2d_13">
      <g>
       <use xlink:href="#m195695b7b3" x="54" y="38.782136" style="fill: #ffffff; stroke: #ffffff; stroke-width: 0.8"/>
      </g>
     </g>
     <g id="text_14">
      <!-- 225 -->
      <g style="fill: #ffffff" transform="translate(27.9125 42.581355)scale(0.1 -0.1)">
       <use xlink:href="#DejaVuSans-32"/>
       <use xlink:href="#DejaVuSans-32" x="63.623047"/>
       <use xlink:href="#DejaVuSans-35" x="127.246094"/>
      </g>
     </g>
    </g>
    <g id="text_15">
     <!-- Degrees Fahrenheit -->
     <g style="fill: #ffffff" transform="translate(21.832812 192.105781)rotate(-90)scale(0.1 -0.1)">
      <defs>
       <path id="DejaVuSans-44" d="M 1259 4147 
L 1259 519 
L 2022 519 
Q 2988 519 3436 956 
Q 3884 1394 3884 2338 
Q 3884 3275 3436 3711 
Q 2988 4147 2022 4147 
L 1259 4147 
z
M 628 4666 
L 1925 4666 
Q 3281 4666 3915 4102 
Q 4550 3538 4550 2338 
Q 4550 1131 3912 565 
Q 3275 0 1925 0 
L 628 0 
L 628 4666 
z
" transform="scale(0.015625)"/>
       <path id="DejaVuSans-65" d="M 3597 1894 
L 3597 1613 
L 953 1613 
Q 991 1019 1311 708 
Q 1631 397 2203 397 
Q 2534 397 2845 478 
Q 3156 559 3463 722 
L 3463 178 
Q 3153 47 2828 -22 
Q 2503 -91 2169 -91 
Q 1331 -91 842 396 
Q 353 884 353 1716 
Q 353 2575 817 3079 
Q 1281 3584 2069 3584 
Q 2775 3584 3186 3129 
Q 3597 2675 3597 1894 
z
M 3022 2063 
Q 3016 2534 2758 2815 
Q 2500 3097 2075 3097 
Q 1594 3097 1305 2825 
Q 1016 2553 972 2059 
L 3022 2063 
z
" transform="scale(0.015625)"/>
       <path id="DejaVuSans-67" d="M 2906 1791 
Q 2906 2416 2648 2759 
Q 2391 3103 1925 3103 
Q 1463 3103 1205 2759 
Q 947 2416 947 1791 
Q 947 1169 1205 825 
Q 1463 481 1925 481 
Q 2391 481 2648 825 
Q 2906 1169 2906 1791 
z
M 3481 434 
Q 3481 -459 3084 -895 
Q 2688 -1331 1869 -1331 
Q 1566 -1331 1297 -1286 
Q 1028 -1241 775 -1147 
L 775 -588 
Q 1028 -725 1275 -790 
Q 1522 -856 1778 -856 
Q 2344 -856 2625 -561 
Q 2906 -266 2906 331 
L 2906 616 
Q 2728 306 2450 153 
Q 2172 0 1784 0 
Q 1141 0 747 490 
Q 353 981 353 1791 
Q 353 2603 747 3093 
Q 1141 3584 1784 3584 
Q 2172 3584 2450 3431 
Q 2728 3278 2906 2969 
L 2906 3500 
L 3481 3500 
L 3481 434 
z
" transform="scale(0.015625)"/>
       <path id="DejaVuSans-20" transform="scale(0.015625)"/>
       <path id="DejaVuSans-46" d="M 628 4666 
L 3309 4666 
L 3309 4134 
L 1259 4134 
L 1259 2759 
L 3109 2759 
L 3109 2228 
L 1259 2228 
L 1259 0 
L 628 0 
L 628 4666 
z
" transform="scale(0.015625)"/>
       <path id="DejaVuSans-61" d="M 2194 1759 
Q 1497 1759 1228 1600 
Q 959 1441 959 1056 
Q 959 750 1161 570 
Q 1363 391 1709 391 
Q 2188 391 2477 730 
Q 2766 1069 2766 1631 
L 2766 1759 
L 2194 1759 
z
M 3341 1997 
L 3341 0 
L 2766 0 
L 2766 531 
Q 2569 213 2275 61 
Q 1981 -91 1556 -91 
Q 1019 -91 701 211 
Q 384 513 384 1019 
Q 384 1609 779 1909 
Q 1175 2209 1959 2209 
L 2766 2209 
L 2766 2266 
Q 2766 2663 2505 2880 
Q 2244 3097 1772 3097 
Q 1472 3097 1187 3025 
Q 903 2953 641 2809 
L 641 3341 
Q 956 3463 1253 3523 
Q 1550 3584 1831 3584 
Q 2591 3584 2966 3190 
Q 3341 2797 3341 1997 
z
" transform="scale(0.015625)"/>
       <path id="DejaVuSans-68" d="M 3513 2113 
L 3513 0 
L 2938 0 
L 2938 2094 
Q 2938 2591 2744 2837 
Q 2550 3084 2163 3084 
Q 1697 3084 1428 2787 
Q 1159 2491 1159 1978 
L 1159 0 
L 581 0 
L 581 4863 
L 1159 4863 
L 1159 2956 
Q 1366 3272 1645 3428 
Q 1925 3584 2291 3584 
Q 2894 3584 3203 3211 
Q 3513 2838 3513 2113 
z
" transform="scale(0.015625)"/>
       <path id="DejaVuSans-6e" d="M 3513 2113 
L 3513 0 
L 2938 0 
L 2938 2094 
Q 2938 2591 2744 2837 
Q 2550 3084 2163 3084 
Q 1697 3084 1428 2787 
Q 1159 2491 1159 1978 
L 1159 0 
L 581 0 
L 581 3500 
L 1159 3500 
L 1159 2956 
Q 1366 3272 1645 3428 
Q 1925 3584 2291 3584 
Q 2894 3584 3203 3211 
Q 3513 2838 3513 2113 
z
" transform="scale(0.015625)"/>
       <path id="DejaVuSans-69" d="M 603 3500 
L 1178 3500 
L 1178 0 
L 603 0 
L 603 3500 
z
M 603 4863 
L 1178 4863 
L 1178 4134 
L 603 4134 
L 603 4863 
z
" transform="scale(0.015625)"/>
       <path id="DejaVuSans-74" d="M 1172 4494 
L 1172 3500 
L 2356 3500 
L 2356 3053 
L 1172 3053 
L 1172 1153 
Q 1172 725 1289 603 
Q 1406 481 1766 481 
L 2356 481 
L 2356 0 
L 1766 0 
Q 1100 0 847 248 
Q 594 497 594 1153 
L 594 3053 
L 172 3053 
L 172 3500 
L 594 3500 
L 594 4494 
L 1172 4494 
z
" transform="scale(0.015625)"/>
      </defs>
      <use xlink:href="#DejaVuSans-44"/>
      <use xlink:href="#DejaVuSans-65" x="77.001953"/>
      <use xlink:href="#DejaVuSans-67" x="138.525391"/>
      <use xlink:href="#DejaVuSans-72" x="202.001953"/>
      <use xlink:href="#DejaVuSans-65" x="240.865234"/>
      <use xlink:href="#DejaVuSans-65" x="302.388672"/>
      <use xlink:href="#DejaVuSans-73" x="363.912109"/>
      <use xlink:href="#DejaVuSans-20" x="416.011719"/>
      <use xlink:href="#DejaVuSans-46" x="447.798828"/>
      <use xlink:href="#DejaVuSans-61" x="496.193359"/>
      <use xlink:href="#DejaVuSans-68" x="557.472656"/>
      <use xlink:href="#DejaVuSans-72" x="620.851562"/>
      <use xlink:href="#DejaVuSans-65" x="659.714844"/>
      <use xlink:href="#DejaVuSans-6e" x="721.238281"/>
      <use xlink:href="#DejaVuSans-68" x="784.617188"/>
      <use xlink:href="#DejaVuSans-65" x="847.996094"/>
      <use xlink:href="#DejaVuSans-69" x="909.519531"/>
      <use xlink:href="#DejaVuSans-74" x="937.302734"/>
     </g>
    </g>
   </g>
   <g id="line2d_14">
    <path d="M 54 252 
L 54.40783 251.882718 
L 54.81566 252 
L 55.223489 251.882718 
L 55.631319 251.530874 
L 56.854808 251.413592 
L 58.078298 251.179029 
L 58.486127 250.944466 
L 60.368419 250.944466 
L 61.356621 250.358058 
L 63.223227 250.358058 
L 63.8036 250.006214 
L 64.21143 250.123495 
L 65.027089 249.888932 
L 66.266264 249.77165 
L 67.081924 249.302524 
L 67.489754 249.419806 
L 67.897583 249.302524 
L 69.121073 249.067961 
L 69.936732 248.833398 
L 71.568051 248.598835 
L 72.399397 248.24699 
L 73.622886 248.129709 
L 74.438545 247.777864 
L 75.254205 247.543301 
L 75.662035 247.308738 
L 77.293354 247.074175 
L 78.109013 246.72233 
L 78.940359 246.605049 
L 79.348188 246.253204 
L 80.571678 246.018641 
L 81.387337 245.666796 
L 83.018656 245.080388 
L 83.426486 244.963107 
L 84.242145 244.611262 
L 84.649975 244.493981 
L 85.057805 244.142136 
L 87.112639 243.438447 
L 87.520469 243.203883 
L 88.743959 242.852039 
L 90.375278 242.031068 
L 90.783107 241.913786 
L 94.877091 239.450874 
L 97.324069 237.222524 
L 98.139729 236.16699 
L 98.547559 235.580583 
L 98.955388 235.346019 
L 99.771048 234.525049 
L 101.010223 233.352233 
L 101.418053 232.765825 
L 102.233712 231.944854 
L 102.641542 231.358447 
L 103.457201 230.772039 
L 103.865031 230.302913 
L 104.272861 230.06835 
L 105.088521 229.247379 
L 109.182504 225.61165 
L 109.590334 225.025243 
L 110.405993 224.438835 
L 111.629482 223.148738 
L 116.131296 219.161165 
L 116.946955 218.340194 
L 118.578274 216.815534 
L 121.025253 214.118058 
L 122.264428 212.945243 
L 143.095117 189.137087 
L 143.926462 188.316117 
L 145.965611 186.087767 
L 146.781271 185.266796 
L 148.00476 183.976699 
L 148.41259 183.624854 
L 150.043909 181.396505 
L 153.322233 177.760777 
L 154.137892 176.939806 
L 156.584871 174.24233 
L 157.40053 173.421359 
L 158.639705 172.131262 
L 159.455365 171.310291 
L 161.086684 169.551068 
L 161.902343 168.730097 
L 162.718003 167.909126 
L 164.349322 166.384466 
L 165.180667 165.563495 
L 165.588497 165.328932 
L 166.404157 164.507961 
L 177.023416 155.477282 
L 178.246905 154.656311 
L 179.89391 153.366214 
L 181.1174 152.545243 
L 181.933059 151.958835 
L 183.156548 151.137864 
L 184.380038 150.199612 
L 185.603527 149.378641 
L 186.842702 148.440388 
L 188.066191 147.619417 
L 188.881851 147.03301 
L 190.51317 145.977476 
L 191.328829 145.391068 
L 194.607153 143.397282 
L 195.014983 143.045437 
L 195.422813 142.928155 
L 206.449902 136.712233 
L 208.096907 135.891262 
L 208.504737 135.773981 
L 209.728226 135.187573 
L 210.136056 135.070291 
L 213.41438 133.311068 
L 213.822209 133.193786 
L 215.453528 132.372816 
L 216.269188 132.138252 
L 217.900507 131.317282 
L 218.308337 131.2 
L 219.123996 130.848155 
L 219.955341 130.496311 
L 220.771001 130.144466 
L 221.178831 130.027184 
L 221.99449 129.67534 
L 222.40232 129.558058 
L 223.625809 128.97165 
L 224.033639 128.854369 
L 224.849299 128.502524 
L 225.257128 128.385243 
L 226.072788 128.033398 
L 228.127622 127.329709 
L 228.943282 126.977864 
L 230.166771 126.626019 
L 230.982431 126.274175 
L 231.79809 126.039612 
L 232.61375 125.687767 
L 236.707733 124.39767 
L 237.115563 124.163107 
L 244.472184 121.934757 
L 245.287844 121.582913 
L 246.103504 121.34835 
L 247.342679 121.113786 
L 250.197487 120.292816 
L 251.420976 120.058252 
L 254.29147 119.237282 
L 255.51496 119.002718 
L 263.687241 116.539806 
L 264.5029 116.187961 
L 265.334245 115.953398 
L 266.557735 115.36699 
L 267.781224 115.015146 
L 269.412543 114.194175 
L 270.228203 113.959612 
L 271.467378 113.373204 
L 271.875207 113.255922 
L 273.098697 112.669515 
L 273.506526 112.552233 
L 275.137845 111.731262 
L 275.545675 111.613981 
L 278.416169 110.08932 
L 279.231829 109.854757 
L 280.863148 109.033786 
L 281.270978 108.916505 
L 282.494467 108.330097 
L 283.733642 107.860971 
L 286.18062 106.570874 
L 286.58845 106.453592 
L 288.219769 105.632621 
L 288.627599 105.51534 
L 291.090263 104.225243 
L 291.498093 104.107961 
L 294.352901 102.583301 
L 294.760731 102.466019 
L 298.039055 100.706796 
L 298.446885 100.589515 
L 301.725209 98.830291 
L 302.133038 98.71301 
L 302.540868 98.361165 
L 302.948698 98.243883 
L 304.580017 97.422913 
L 304.987847 97.305631 
L 307.450511 96.015534 
L 307.858341 95.898252 
L 310.305319 94.608155 
L 310.713149 94.490874 
L 320.124605 88.978641 
L 321.348095 88.040388 
L 322.571584 87.219417 
L 324.610733 85.577476 
L 325.442078 84.991068 
L 331.98304 79.478835 
L 332.626156 79.244272 
L 332.626156 79.244272 
" clip-path="url(#p6379371dd6)" style="fill: none; stroke: #808080; stroke-opacity: 0.501961; stroke-width: 6; stroke-linecap: round"/>
   </g>
   <g id="line2d_15">
    <path d="M 97.731899 236.753398 
L 98.547559 235.580583 
L 98.955388 235.346019 
L 99.771048 234.525049 
L 101.010223 233.352233 
L 101.418053 232.765825 
L 102.233712 231.944854 
L 102.641542 231.358447 
L 103.457201 230.772039 
L 103.865031 230.302913 
L 104.272861 230.06835 
L 105.088521 229.247379 
L 109.182504 225.61165 
L 109.590334 225.025243 
L 110.405993 224.438835 
L 111.629482 223.148738 
L 116.131296 219.161165 
L 116.946955 218.340194 
L 118.578274 216.815534 
L 121.025253 214.118058 
L 122.264428 212.945243 
L 143.095117 189.137087 
L 143.926462 188.316117 
L 145.965611 186.087767 
L 146.781271 185.266796 
L 148.00476 183.976699 
L 148.41259 183.624854 
L 150.043909 181.396505 
L 153.322233 177.760777 
L 154.137892 176.939806 
L 156.584871 174.24233 
L 157.40053 173.421359 
L 158.639705 172.131262 
L 159.455365 171.310291 
L 161.086684 169.551068 
L 161.902343 168.730097 
L 162.718003 167.909126 
L 164.349322 166.384466 
L 165.180667 165.563495 
L 165.588497 165.328932 
L 166.404157 164.507961 
L 177.023416 155.477282 
L 178.246905 154.656311 
L 179.89391 153.366214 
L 181.1174 152.545243 
L 181.933059 151.958835 
L 183.156548 151.137864 
L 184.380038 150.199612 
L 185.603527 149.378641 
L 186.842702 148.440388 
L 188.066191 147.619417 
L 188.881851 147.03301 
L 190.51317 145.977476 
L 191.328829 145.391068 
L 194.607153 143.397282 
L 195.014983 143.045437 
L 195.422813 142.928155 
L 206.449902 136.712233 
L 208.096907 135.891262 
L 208.504737 135.773981 
L 209.728226 135.187573 
L 210.136056 135.070291 
L 213.41438 133.311068 
L 213.822209 133.193786 
L 215.453528 132.372816 
L 216.269188 132.138252 
L 217.900507 131.317282 
L 218.308337 131.2 
L 219.123996 130.848155 
L 219.955341 130.496311 
L 220.771001 130.144466 
L 221.178831 130.027184 
L 221.99449 129.67534 
L 222.40232 129.558058 
L 223.625809 128.97165 
L 224.033639 128.854369 
L 224.849299 128.502524 
L 225.257128 128.385243 
L 226.072788 128.033398 
L 228.127622 127.329709 
L 228.943282 126.977864 
L 230.166771 126.626019 
L 230.982431 126.274175 
L 231.79809 126.039612 
L 232.61375 125.687767 
L 236.707733 124.39767 
L 237.115563 124.163107 
L 244.472184 121.934757 
L 245.287844 121.582913 
L 246.103504 121.34835 
L 247.342679 121.113786 
L 247.750508 120.996505 
L 247.750508 120.996505 
" clip-path="url(#p6379371dd6)" style="fill: none; stroke: #20a0ff; stroke-opacity: 0.501961; stroke-width: 6; stroke-linecap: round"/>
   </g>
   <g id="line2d_16">
    <path d="M 97.731899 165.772637 
L 399.839638 75.480453 
L 399.839638 75.480453 
" clip-path="url(#p6379371dd6)" style="fill: none; stroke-dasharray: 5.55,2.4; stroke-dashoffset: 0; stroke: #d62728; stroke-width: 1.5"/>
   </g>
   <g id="line2d_17">
    <path d="M 97.731899 234.510052 
L 99.61419 233.663547 
L 101.496481 232.588492 
L 104.319918 230.61905 
L 107.143355 228.302804 
L 109.966792 225.714811 
L 113.731374 221.944936 
L 118.437102 216.875444 
L 125.025122 209.400028 
L 142.906888 188.897491 
L 149.494907 181.728967 
L 156.082927 174.906835 
L 161.7298 169.370429 
L 167.376674 164.140526 
L 173.023547 159.227322 
L 178.670421 154.635028 
L 184.317295 150.363128 
L 189.964168 146.407345 
L 195.611042 142.760366 
L 201.257915 139.412422 
L 206.904789 136.351724 
L 212.551663 133.56482 
L 218.198536 131.036871 
L 223.84541 128.751885 
L 229.492284 126.692892 
L 236.080303 124.552583 
L 242.668322 122.666172 
L 249.256341 121.003121 
L 256.785506 119.335606 
L 265.255817 117.699207 
L 275.608418 115.944543 
L 312.313097 109.986695 
L 320.783407 108.236475 
L 328.312572 106.430775 
L 334.900591 104.613685 
L 340.547465 102.851239 
L 346.194339 100.875476 
L 351.841212 98.663459 
L 357.488086 96.192195 
L 363.134959 93.43864 
L 367.840687 90.911713 
L 372.546415 88.159328 
L 377.252143 85.168081 
L 381.957871 81.924548 
L 386.663599 78.415289 
L 391.369327 74.626848 
L 396.075056 70.545757 
L 399.839638 67.061115 
L 399.839638 67.061115 
" clip-path="url(#p6379371dd6)" style="fill: none; stroke-dasharray: 5.55,2.4; stroke-dashoffset: 0; stroke: #ff7f0e; stroke-width: 1.5"/>
   </g>
   <g id="line2d_18">
    <path d="M 97.731899 239.861753 
L 99.61419 238.384858 
L 102.437627 235.805748 
L 105.261064 232.883155 
L 109.025646 228.596226 
L 113.731374 222.822554 
L 121.260539 213.119893 
L 132.554286 198.55028 
L 139.142306 190.422591 
L 144.789179 183.792378 
L 150.436053 177.519422 
L 156.082927 171.629371 
L 160.788655 167.022791 
L 165.494383 162.692728 
L 170.200111 158.63712 
L 174.905839 154.85078 
L 179.611567 151.325967 
L 184.317295 148.05284 
L 189.023023 145.019809 
L 193.728751 142.21383 
L 199.375624 139.126193 
L 205.022498 136.318305 
L 210.669372 133.76179 
L 216.316245 131.426806 
L 222.904264 128.941135 
L 230.433429 126.352127 
L 239.844885 123.377821 
L 268.079253 114.658715 
L 275.608418 111.982746 
L 282.196437 109.386975 
L 287.843311 106.9263 
L 293.490185 104.208695 
L 298.195913 101.720749 
L 302.901641 99.006629 
L 307.607369 96.04452 
L 312.313097 92.812544 
L 317.018825 89.288769 
L 321.724553 85.451213 
L 326.430281 81.277847 
L 331.136009 76.746601 
L 335.841737 71.835366 
L 340.547465 66.521997 
L 344.312047 61.966863 
L 348.07663 57.128802 
L 351.841212 51.996432 
L 355.605795 46.558363 
L 359.370377 40.803193 
L 363.134959 34.719511 
L 367.840687 26.635541 
L 372.546415 17.998103 
L 377.252143 8.784855 
L 381.945442 -1 
L 381.945442 -1 
" clip-path="url(#p6379371dd6)" style="fill: none; stroke-dasharray: 5.55,2.4; stroke-dashoffset: 0; stroke: #2ca02c; stroke-width: 1.5"/>
   </g>
   <g id="line2d_19">
    <path d="M 344.09389 252 
L 344.09389 34.56 
" clip-path="url(#p6379371dd6)" style="fill: none; stroke: #ffffff; stroke-opacity: 0.501961; stroke-width: 1.5; stroke-linecap: square"/>
   </g>
   <g id="line2d_20">
    <path d="M 54 62.238447 
L 388.8 62.238447 
" clip-path="url(#p6379371dd6)" style="fill: none; stroke: #ffffff; stroke-opacity: 0.501961; stroke-width: 1.5; stroke-linecap: square"/>
   </g>
   <g id="patch_3">
    <path d="M 54 252 
L 54 34.56 
" style="fill: none; stroke: #ffffff; stroke-width: 0.8; stroke-linejoin: miter; stroke-linecap: square"/>
   </g>
   <g id="patch_4">
    <path d="M 388.8 252 
L 388.8 34.56 
" style="fill: none; stroke: #ffffff; stroke-width: 0.8; stroke-linejoin: miter; stroke-linecap: square"/>
   </g>
   <g id="patch_5">
    <path d="M 54 252 
L 388.8 252 
" style="fill: none; stroke: #ffffff; stroke-width: 0.8; stroke-linejoin: miter; stroke-linecap: square"/>
   </g>
   <g id="patch_6">
    <path d="M 54 34.56 
L 388.8 34.56 
" style="fill: none; stroke: #ffffff; stroke-width: 0.8; stroke-linejoin: miter; stroke-linecap: square"/>
   </g>
   <g id="text_16">
    <!-- Temperature vs Time (y=ax³+bx²+cx+dx⁻¹+e) -->
    <g style="fill: #ffffff" transform="translate(80.071875 28.56)scale(0.12 -0.12)">
     <defs>
      <path id="DejaVuSans-54" d="M -19 4666 
L 3928 4666 
L 3928 4134 
L 2272 4134 
L 2272 0 
L 1638 0 
L 1638 4134 
L -19 4134 
L -19 4666 
z
" transform="scale(0.015625)"/>
      <path id="DejaVuSans-6d" d="M 3328 2828 
Q 3544 3216 3844 3400 
Q 4144 3584 4550 3584 
Q 5097 3584 5394 3201 
Q 5691 2819 5691 2113 
L 5691 0 
L 5113 0 
L 5113 2094 
Q 5113 2597 4934 2840 
Q 4756 3084 4391 3084 
Q 3944 3084 3684 2787 
Q 3425 2491 3425 1978 
L 3425 0 
L 2847 0 
L 2847 2094 
Q 2847 2600 2669 2842 
Q 2491 3084 2119 3084 
Q 1678 3084 1418 2786 
Q 1159 2488 1159 1978 
L 1159 0 
L 581 0 
L 581 3500 
L 1159 3500 
L 1159 2956 
Q 1356 3278 1631 3431 
Q 1906 3584 2284 3584 
Q 2666 3584 2933 3390 
Q 3200 3197 3328 2828 
z
" transform="scale(0.015625)"/>
      <path id="DejaVuSans-70" d="M 1159 525 
L 1159 -1331 
L 581 -1331 
L 581 3500 
L 1159 3500 
L 1159 2969 
Q 1341 3281 1617 3432 
Q 1894 3584 2278 3584 
Q 2916 3584 3314 3078 
Q 3713 2572 3713 1747 
Q 3713 922 3314 415 
Q 2916 -91 2278 -91 
Q 1894 -91 1617 61 
Q 1341 213 1159 525 
z
M 3116 1747 
Q 3116 2381 2855 2742 
Q 2594 3103 2138 3103 
Q 1681 3103 1420 2742 
Q 1159 2381 1159 1747 
Q 1159 1113 1420 752 
Q 1681 391 2138 391 
Q 2594 391 2855 752 
Q 3116 1113 3116 1747 
z
" transform="scale(0.015625)"/>
      <path id="DejaVuSans-76" d="M 191 3500 
L 800 3500 
L 1894 563 
L 2988 3500 
L 3597 3500 
L 2284 0 
L 1503 0 
L 191 3500 
z
" transform="scale(0.015625)"/>
      <path id="DejaVuSans-28" d="M 1984 4856 
Q 1566 4138 1362 3434 
Q 1159 2731 1159 2009 
Q 1159 1288 1364 580 
Q 1569 -128 1984 -844 
L 1484 -844 
Q 1016 -109 783 600 
Q 550 1309 550 2009 
Q 550 2706 781 3412 
Q 1013 4119 1484 4856 
L 1984 4856 
z
" transform="scale(0.015625)"/>
      <path id="DejaVuSans-79" d="M 2059 -325 
Q 1816 -950 1584 -1140 
Q 1353 -1331 966 -1331 
L 506 -1331 
L 506 -850 
L 844 -850 
Q 1081 -850 1212 -737 
Q 1344 -625 1503 -206 
L 1606 56 
L 191 3500 
L 800 3500 
L 1894 763 
L 2988 3500 
L 3597 3500 
L 2059 -325 
z
" transform="scale(0.015625)"/>
      <path id="DejaVuSans-3d" d="M 678 2906 
L 4684 2906 
L 4684 2381 
L 678 2381 
L 678 2906 
z
M 678 1631 
L 4684 1631 
L 4684 1100 
L 678 1100 
L 678 1631 
z
" transform="scale(0.015625)"/>
      <path id="DejaVuSans-78" d="M 3513 3500 
L 2247 1797 
L 3578 0 
L 2900 0 
L 1881 1375 
L 863 0 
L 184 0 
L 1544 1831 
L 300 3500 
L 978 3500 
L 1906 2253 
L 2834 3500 
L 3513 3500 
z
" transform="scale(0.015625)"/>
      <path id="DejaVuSans-b3" d="M 1638 3500 
Q 1925 3444 2083 3273 
Q 2241 3103 2241 2847 
Q 2241 2459 1944 2250 
Q 1647 2041 1094 2041 
Q 916 2041 720 2073 
Q 525 2106 306 2169 
L 306 2547 
Q 469 2463 655 2422 
Q 841 2381 1050 2381 
Q 1391 2381 1578 2504 
Q 1766 2628 1766 2847 
Q 1766 3078 1592 3197 
Q 1419 3316 1081 3316 
L 813 3316 
L 813 3653 
L 1106 3653 
Q 1400 3653 1551 3751 
Q 1703 3850 1703 4038 
Q 1703 4219 1547 4314 
Q 1391 4409 1094 4409 
Q 969 4409 809 4381 
Q 650 4353 397 4281 
L 397 4641 
Q 625 4694 825 4722 
Q 1025 4750 1197 4750 
Q 1647 4750 1911 4565 
Q 2175 4381 2175 4072 
Q 2175 3856 2034 3706 
Q 1894 3556 1638 3500 
z
" transform="scale(0.015625)"/>
      <path id="DejaVuSans-2b" d="M 2944 4013 
L 2944 2272 
L 4684 2272 
L 4684 1741 
L 2944 1741 
L 2944 0 
L 2419 0 
L 2419 1741 
L 678 1741 
L 678 2272 
L 2419 2272 
L 2419 4013 
L 2944 4013 
z
" transform="scale(0.015625)"/>
      <path id="DejaVuSans-62" d="M 3116 1747 
Q 3116 2381 2855 2742 
Q 2594 3103 2138 3103 
Q 1681 3103 1420 2742 
Q 1159 2381 1159 1747 
Q 1159 1113 1420 752 
Q 1681 391 2138 391 
Q 2594 391 2855 752 
Q 3116 1113 3116 1747 
z
M 1159 2969 
Q 1341 3281 1617 3432 
Q 1894 3584 2278 3584 
Q 2916 3584 3314 3078 
Q 3713 2572 3713 1747 
Q 3713 922 3314 415 
Q 2916 -91 2278 -91 
Q 1894 -91 1617 61 
Q 1341 213 1159 525 
L 1159 0 
L 581 0 
L 581 4863 
L 1159 4863 
L 1159 2969 
z
" transform="scale(0.015625)"/>
      <path id="DejaVuSans-b2" d="M 838 2444 
L 2163 2444 
L 2163 2088 
L 294 2088 
L 294 2431 
Q 400 2528 597 2703 
Q 1672 3656 1672 3950 
Q 1672 4156 1509 4282 
Q 1347 4409 1081 4409 
Q 919 4409 728 4354 
Q 538 4300 313 4191 
L 313 4575 
Q 553 4663 761 4706 
Q 969 4750 1147 4750 
Q 1600 4750 1872 4544 
Q 2144 4338 2144 4000 
Q 2144 3566 1109 2678 
Q 934 2528 838 2444 
z
" transform="scale(0.015625)"/>
      <path id="DejaVuSans-63" d="M 3122 3366 
L 3122 2828 
Q 2878 2963 2633 3030 
Q 2388 3097 2138 3097 
Q 1578 3097 1268 2742 
Q 959 2388 959 1747 
Q 959 1106 1268 751 
Q 1578 397 2138 397 
Q 2388 397 2633 464 
Q 2878 531 3122 666 
L 3122 134 
Q 2881 22 2623 -34 
Q 2366 -91 2075 -91 
Q 1284 -91 818 406 
Q 353 903 353 1747 
Q 353 2603 823 3093 
Q 1294 3584 2113 3584 
Q 2378 3584 2631 3529 
Q 2884 3475 3122 3366 
z
" transform="scale(0.015625)"/>
      <path id="DejaVuSans-64" d="M 2906 2969 
L 2906 4863 
L 3481 4863 
L 3481 0 
L 2906 0 
L 2906 525 
Q 2725 213 2448 61 
Q 2172 -91 1784 -91 
Q 1150 -91 751 415 
Q 353 922 353 1747 
Q 353 2572 751 3078 
Q 1150 3584 1784 3584 
Q 2172 3584 2448 3432 
Q 2725 3281 2906 2969 
z
M 947 1747 
Q 947 1113 1208 752 
Q 1469 391 1925 391 
Q 2381 391 2643 752 
Q 2906 1113 2906 1747 
Q 2906 2381 2643 2742 
Q 2381 3103 1925 3103 
Q 1469 3103 1208 2742 
Q 947 2381 947 1747 
z
" transform="scale(0.015625)"/>
      <path id="DejaVuSans-207b" d="M 428 3359 
L 2950 3359 
L 2950 3063 
L 428 3063 
L 428 3359 
z
" transform="scale(0.015625)"/>
      <path id="DejaVuSans-b9" d="M 488 2431 
L 1125 2431 
L 1125 4341 
L 428 4213 
L 428 4575 
L 1147 4697 
L 1575 4697 
L 1575 2431 
L 2216 2431 
L 2216 2088 
L 488 2088 
L 488 2431 
z
" transform="scale(0.015625)"/>
      <path id="DejaVuSans-29" d="M 513 4856 
L 1013 4856 
Q 1481 4119 1714 3412 
Q 1947 2706 1947 2009 
Q 1947 1309 1714 600 
Q 1481 -109 1013 -844 
L 513 -844 
Q 928 -128 1133 580 
Q 1338 1288 1338 2009 
Q 1338 2731 1133 3434 
Q 928 4138 513 4856 
z
" transform="scale(0.015625)"/>
     </defs>
     <use xlink:href="#DejaVuSans-54"/>
     <use xlink:href="#DejaVuSans-65" x="44.083984"/>
     <use xlink:href="#DejaVuSans-6d" x="105.607422"/>
     <use xlink:href="#DejaVuSans-70" x="203.019531"/>
     <use xlink:href="#DejaVuSans-65" x="266.496094"/>
     <use xlink:href="#DejaVuSans-72" x="328.019531"/>
     <use xlink:href="#DejaVuSans-61" x="369.132812"/>
     <use xlink:href="#DejaVuSans-74" x="430.412109"/>
     <use xlink:href="#DejaVuSans-75" x="469.621094"/>
     <use xlink:href="#DejaVuSans-72" x="533"/>
     <use xlink:href="#DejaVuSans-65" x="571.863281"/>
     <use xlink:href="#DejaVuSans-20" x="633.386719"/>
     <use xlink:href="#DejaVuSans-76" x="665.173828"/>
     <use xlink:href="#DejaVuSans-73" x="724.353516"/>
     <use xlink:href="#DejaVuSans-20" x="776.453125"/>
     <use xlink:href="#DejaVuSans-54" x="808.240234"/>
     <use xlink:href="#DejaVuSans-69" x="866.199219"/>
     <use xlink:href="#DejaVuSans-6d" x="893.982422"/>
     <use xlink:href="#DejaVuSans-65" x="991.394531"/>
     <use xlink:href="#DejaVuSans-20" x="1052.917969"/>
     <use xlink:href="#DejaVuSans-28" x="1084.705078"/>
     <use xlink:href="#DejaVuSans-79" x="1123.71875"/>
     <use xlink:href="#DejaVuSans-3d" x="1182.898438"/>
     <use xlink:href="#DejaVuSans-61" x="1266.6875"/>
     <use xlink:href="#DejaVuSans-78" x="1327.966797"/>
     <use xlink:href="#DejaVuSans-b3" x="1387.146484"/>
     <use xlink:href="#DejaVuSans-2b" x="1427.234375"/>
     <use xlink:href="#DejaVuSans-62" x="1511.023438"/>
     <use xlink:href="#DejaVuSans-78" x="1574.5"/>
     <use xlink:href="#DejaVuSans-b2" x="1633.679688"/>
     <use xlink:href="#DejaVuSans-2b" x="1673.767578"/>
     <use xlink:href="#DejaVuSans-63" x="1757.556641"/>
     <use xlink:href="#DejaVuSans-78" x="1812.537109"/>
     <use xlink:href="#DejaVuSans-2b" x="1871.716797"/>
     <use xlink:href="#DejaVuSans-64" x="1955.505859"/>
     <use xlink:href="#DejaVuSans-78" x="2018.982422"/>
     <use xlink:href="#DejaVuSans-207b" x="2078.162109"/>
     <use xlink:href="#DejaVuSans-b9" x="2130.945312"/>
     <use xlink:href="#DejaVuSans-2b" x="2171.033203"/>
     <use xlink:href="#DejaVuSans-65" x="2254.822266"/>
     <use xlink:href="#DejaVuSans-29" x="2316.345703"/>
    </g>
   </g>
   <g id="legend_1">
    <g id="patch_7">
     <path d="M 61 115.950625 
L 216.603125 115.950625 
Q 218.603125 115.950625 218.603125 113.950625 
L 218.603125 41.56 
Q 218.603125 39.56 216.603125 39.56 
L 61 39.56 
Q 59 39.56 59 41.56 
L 59 113.950625 
Q 59 115.950625 61 115.950625 
z
" style="opacity: 0.8; stroke: #cccccc; stroke-linejoin: miter"/>
    </g>
    <g id="line2d_21">
     <path d="M 63 47.658437 
L 73 47.658437 
L 83 47.658437 
" style="fill: none; stroke: #20a0ff; stroke-opacity: 0.501961; stroke-width: 6; stroke-linecap: round"/>
    </g>
    <g id="text_17">
     <!-- Measured (0:48-3:28) -->
     <g style="fill: #ffffff" transform="translate(91 51.158437)scale(0.1 -0.1)">
      <defs>
       <path id="DejaVuSans-4d" d="M 628 4666 
L 1569 4666 
L 2759 1491 
L 3956 4666 
L 4897 4666 
L 4897 0 
L 4281 0 
L 4281 4097 
L 3078 897 
L 2444 897 
L 1241 4097 
L 1241 0 
L 628 0 
L 628 4666 
z
" transform="scale(0.015625)"/>
       <path id="DejaVuSans-3a" d="M 750 794 
L 1409 794 
L 1409 0 
L 750 0 
L 750 794 
z
M 750 3309 
L 1409 3309 
L 1409 2516 
L 750 2516 
L 750 3309 
z
" transform="scale(0.015625)"/>
       <path id="DejaVuSans-38" d="M 2034 2216 
Q 1584 2216 1326 1975 
Q 1069 1734 1069 1313 
Q 1069 891 1326 650 
Q 1584 409 2034 409 
Q 2484 409 2743 651 
Q 3003 894 3003 1313 
Q 3003 1734 2745 1975 
Q 2488 2216 2034 2216 
z
M 1403 2484 
Q 997 2584 770 2862 
Q 544 3141 544 3541 
Q 544 4100 942 4425 
Q 1341 4750 2034 4750 
Q 2731 4750 3128 4425 
Q 3525 4100 3525 3541 
Q 3525 3141 3298 2862 
Q 3072 2584 2669 2484 
Q 3125 2378 3379 2068 
Q 3634 1759 3634 1313 
Q 3634 634 3220 271 
Q 2806 -91 2034 -91 
Q 1263 -91 848 271 
Q 434 634 434 1313 
Q 434 1759 690 2068 
Q 947 2378 1403 2484 
z
M 1172 3481 
Q 1172 3119 1398 2916 
Q 1625 2713 2034 2713 
Q 2441 2713 2670 2916 
Q 2900 3119 2900 3481 
Q 2900 3844 2670 4047 
Q 2441 4250 2034 4250 
Q 1625 4250 1398 4047 
Q 1172 3844 1172 3481 
z
" transform="scale(0.015625)"/>
       <path id="DejaVuSans-2d" d="M 313 2009 
L 1997 2009 
L 1997 1497 
L 313 1497 
L 313 2009 
z
" transform="scale(0.015625)"/>
      </defs>
      <use xlink:href="#DejaVuSans-4d"/>
      <use xlink:href="#DejaVuSans-65" x="86.279297"/>
      <use xlink:href="#DejaVuSans-61" x="147.802734"/>
      <use xlink:href="#DejaVuSans-73" x="209.082031"/>
      <use xlink:href="#DejaVuSans-75" x="261.181641"/>
      <use xlink:href="#DejaVuSans-72" x="324.560547"/>
      <use xlink:href="#DejaVuSans-65" x="363.423828"/>
      <use xlink:href="#DejaVuSans-64" x="424.947266"/>
      <use xlink:href="#DejaVuSans-20" x="488.423828"/>
      <use xlink:href="#DejaVuSans-28" x="520.210938"/>
      <use xlink:href="#DejaVuSans-30" x="559.224609"/>
      <use xlink:href="#DejaVuSans-3a" x="622.847656"/>
      <use xlink:href="#DejaVuSans-34" x="656.539062"/>
      <use xlink:href="#DejaVuSans-38" x="720.162109"/>
      <use xlink:href="#DejaVuSans-2d" x="783.785156"/>
      <use xlink:href="#DejaVuSans-33" x="819.869141"/>
      <use xlink:href="#DejaVuSans-3a" x="883.492188"/>
      <use xlink:href="#DejaVuSans-32" x="917.183594"/>
      <use xlink:href="#DejaVuSans-38" x="980.806641"/>
      <use xlink:href="#DejaVuSans-29" x="1044.429688"/>
     </g>
    </g>
    <g id="line2d_22">
     <path d="M 63 62.336562 
L 73 62.336562 
L 83 62.336562 
" style="fill: none; stroke-dasharray: 5.55,2.4; stroke-dashoffset: 0; stroke: #d62728; stroke-width: 1.5"/>
    </g>
    <g id="text_18">
     <!-- Linear (59.92% fit) -->
     <g style="fill: #ffffff" transform="translate(91 65.836562)scale(0.1 -0.1)">
      <defs>
       <path id="DejaVuSans-4c" d="M 628 4666 
L 1259 4666 
L 1259 531 
L 3531 531 
L 3531 0 
L 628 0 
L 628 4666 
z
" transform="scale(0.015625)"/>
       <path id="DejaVuSans-39" d="M 703 97 
L 703 672 
Q 941 559 1184 500 
Q 1428 441 1663 441 
Q 2288 441 2617 861 
Q 2947 1281 2994 2138 
Q 2813 1869 2534 1725 
Q 2256 1581 1919 1581 
Q 1219 1581 811 2004 
Q 403 2428 403 3163 
Q 403 3881 828 4315 
Q 1253 4750 1959 4750 
Q 2769 4750 3195 4129 
Q 3622 3509 3622 2328 
Q 3622 1225 3098 567 
Q 2575 -91 1691 -91 
Q 1453 -91 1209 -44 
Q 966 3 703 97 
z
M 1959 2075 
Q 2384 2075 2632 2365 
Q 2881 2656 2881 3163 
Q 2881 3666 2632 3958 
Q 2384 4250 1959 4250 
Q 1534 4250 1286 3958 
Q 1038 3666 1038 3163 
Q 1038 2656 1286 2365 
Q 1534 2075 1959 2075 
z
" transform="scale(0.015625)"/>
       <path id="DejaVuSans-2e" d="M 684 794 
L 1344 794 
L 1344 0 
L 684 0 
L 684 794 
z
" transform="scale(0.015625)"/>
       <path id="DejaVuSans-25" d="M 4653 2053 
Q 4381 2053 4226 1822 
Q 4072 1591 4072 1178 
Q 4072 772 4226 539 
Q 4381 306 4653 306 
Q 4919 306 5073 539 
Q 5228 772 5228 1178 
Q 5228 1588 5073 1820 
Q 4919 2053 4653 2053 
z
M 4653 2450 
Q 5147 2450 5437 2106 
Q 5728 1763 5728 1178 
Q 5728 594 5436 251 
Q 5144 -91 4653 -91 
Q 4153 -91 3862 251 
Q 3572 594 3572 1178 
Q 3572 1766 3864 2108 
Q 4156 2450 4653 2450 
z
M 1428 4353 
Q 1159 4353 1004 4120 
Q 850 3888 850 3481 
Q 850 3069 1003 2837 
Q 1156 2606 1428 2606 
Q 1700 2606 1854 2837 
Q 2009 3069 2009 3481 
Q 2009 3884 1853 4118 
Q 1697 4353 1428 4353 
z
M 4250 4750 
L 4750 4750 
L 1831 -91 
L 1331 -91 
L 4250 4750 
z
M 1428 4750 
Q 1922 4750 2215 4408 
Q 2509 4066 2509 3481 
Q 2509 2891 2217 2550 
Q 1925 2209 1428 2209 
Q 931 2209 642 2551 
Q 353 2894 353 3481 
Q 353 4063 643 4406 
Q 934 4750 1428 4750 
z
" transform="scale(0.015625)"/>
       <path id="DejaVuSans-66" d="M 2375 4863 
L 2375 4384 
L 1825 4384 
Q 1516 4384 1395 4259 
Q 1275 4134 1275 3809 
L 1275 3500 
L 2222 3500 
L 2222 3053 
L 1275 3053 
L 1275 0 
L 697 0 
L 697 3053 
L 147 3053 
L 147 3500 
L 697 3500 
L 697 3744 
Q 697 4328 969 4595 
Q 1241 4863 1831 4863 
L 2375 4863 
z
" transform="scale(0.015625)"/>
      </defs>
      <use xlink:href="#DejaVuSans-4c"/>
      <use xlink:href="#DejaVuSans-69" x="55.712891"/>
      <use xlink:href="#DejaVuSans-6e" x="83.496094"/>
      <use xlink:href="#DejaVuSans-65" x="146.875"/>
      <use xlink:href="#DejaVuSans-61" x="208.398438"/>
      <use xlink:href="#DejaVuSans-72" x="269.677734"/>
      <use xlink:href="#DejaVuSans-20" x="310.791016"/>
      <use xlink:href="#DejaVuSans-28" x="342.578125"/>
      <use xlink:href="#DejaVuSans-35" x="381.591797"/>
      <use xlink:href="#DejaVuSans-39" x="445.214844"/>
      <use xlink:href="#DejaVuSans-2e" x="508.837891"/>
      <use xlink:href="#DejaVuSans-39" x="540.625"/>
      <use xlink:href="#DejaVuSans-32" x="604.248047"/>
      <use xlink:href="#DejaVuSans-25" x="667.871094"/>
      <use xlink:href="#DejaVuSans-20" x="762.890625"/>
      <use xlink:href="#DejaVuSans-66" x="794.677734"/>
      <use xlink:href="#DejaVuSans-69" x="829.882812"/>
      <use xlink:href="#DejaVuSans-74" x="857.666016"/>
      <use xlink:href="#DejaVuSans-29" x="896.875"/>
     </g>
    </g>
    <g id="line2d_23">
     <path d="M 63 77.014687 
L 73 77.014687 
L 83 77.014687 
" style="fill: none; stroke-dasharray: 5.55,2.4; stroke-dashoffset: 0; stroke: #ff7f0e; stroke-width: 1.5"/>
    </g>
    <g id="text_19">
     <!-- Basic Fit (96.79% fit) -->
     <g style="fill: #ffffff" transform="translate(91 80.514687)scale(0.1 -0.1)">
      <defs>
       <path id="DejaVuSans-42" d="M 1259 2228 
L 1259 519 
L 2272 519 
Q 2781 519 3026 730 
Q 3272 941 3272 1375 
Q 3272 1813 3026 2020 
Q 2781 2228 2272 2228 
L 1259 2228 
z
M 1259 4147 
L 1259 2741 
L 2194 2741 
Q 2656 2741 2882 2914 
Q 3109 3088 3109 3444 
Q 3109 3797 2882 3972 
Q 2656 4147 2194 4147 
L 1259 4147 
z
M 628 4666 
L 2241 4666 
Q 2963 4666 3353 4366 
Q 3744 4066 3744 3513 
Q 3744 3084 3544 2831 
Q 3344 2578 2956 2516 
Q 3422 2416 3680 2098 
Q 3938 1781 3938 1306 
Q 3938 681 3513 340 
Q 3088 0 2303 0 
L 628 0 
L 628 4666 
z
" transform="scale(0.015625)"/>
       <path id="DejaVuSans-36" d="M 2113 2584 
Q 1688 2584 1439 2293 
Q 1191 2003 1191 1497 
Q 1191 994 1439 701 
Q 1688 409 2113 409 
Q 2538 409 2786 701 
Q 3034 994 3034 1497 
Q 3034 2003 2786 2293 
Q 2538 2584 2113 2584 
z
M 3366 4563 
L 3366 3988 
Q 3128 4100 2886 4159 
Q 2644 4219 2406 4219 
Q 1781 4219 1451 3797 
Q 1122 3375 1075 2522 
Q 1259 2794 1537 2939 
Q 1816 3084 2150 3084 
Q 2853 3084 3261 2657 
Q 3669 2231 3669 1497 
Q 3669 778 3244 343 
Q 2819 -91 2113 -91 
Q 1303 -91 875 529 
Q 447 1150 447 2328 
Q 447 3434 972 4092 
Q 1497 4750 2381 4750 
Q 2619 4750 2861 4703 
Q 3103 4656 3366 4563 
z
" transform="scale(0.015625)"/>
      </defs>
      <use xlink:href="#DejaVuSans-42"/>
      <use xlink:href="#DejaVuSans-61" x="68.603516"/>
      <use xlink:href="#DejaVuSans-73" x="129.882812"/>
      <use xlink:href="#DejaVuSans-69" x="181.982422"/>
      <use xlink:href="#DejaVuSans-63" x="209.765625"/>
      <use xlink:href="#DejaVuSans-20" x="264.746094"/>
      <use xlink:href="#DejaVuSans-46" x="296.533203"/>
      <use xlink:href="#DejaVuSans-69" x="346.802734"/>
      <use xlink:href="#DejaVuSans-74" x="374.585938"/>
      <use xlink:href="#DejaVuSans-20" x="413.794922"/>
      <use xlink:href="#DejaVuSans-28" x="445.582031"/>
      <use xlink:href="#DejaVuSans-39" x="484.595703"/>
      <use xlink:href="#DejaVuSans-36" x="548.21875"/>
      <use xlink:href="#DejaVuSans-2e" x="611.841797"/>
      <use xlink:href="#DejaVuSans-37" x="643.628906"/>
      <use xlink:href="#DejaVuSans-39" x="707.251953"/>
      <use xlink:href="#DejaVuSans-25" x="770.875"/>
      <use xlink:href="#DejaVuSans-20" x="865.894531"/>
      <use xlink:href="#DejaVuSans-66" x="897.681641"/>
      <use xlink:href="#DejaVuSans-69" x="932.886719"/>
      <use xlink:href="#DejaVuSans-74" x="960.669922"/>
      <use xlink:href="#DejaVuSans-29" x="999.878906"/>
     </g>
    </g>
    <g id="line2d_24">
     <path d="M 63 91.692813 
L 73 91.692813 
L 83 91.692813 
" style="fill: none; stroke-dasharray: 5.55,2.4; stroke-dashoffset: 0; stroke: #2ca02c; stroke-width: 1.5"/>
    </g>
    <g id="text_20">
     <!-- Constrained (99.79% fit) -->
     <g style="fill: #ffffff" transform="translate(91 95.192813)scale(0.1 -0.1)">
      <defs>
       <path id="DejaVuSans-43" d="M 4122 4306 
L 4122 3641 
Q 3803 3938 3442 4084 
Q 3081 4231 2675 4231 
Q 1875 4231 1450 3742 
Q 1025 3253 1025 2328 
Q 1025 1406 1450 917 
Q 1875 428 2675 428 
Q 3081 428 3442 575 
Q 3803 722 4122 1019 
L 4122 359 
Q 3791 134 3420 21 
Q 3050 -91 2638 -91 
Q 1578 -91 968 557 
Q 359 1206 359 2328 
Q 359 3453 968 4101 
Q 1578 4750 2638 4750 
Q 3056 4750 3426 4639 
Q 3797 4528 4122 4306 
z
" transform="scale(0.015625)"/>
      </defs>
      <use xlink:href="#DejaVuSans-43"/>
      <use xlink:href="#DejaVuSans-6f" x="69.824219"/>
      <use xlink:href="#DejaVuSans-6e" x="131.005859"/>
      <use xlink:href="#DejaVuSans-73" x="194.384766"/>
      <use xlink:href="#DejaVuSans-74" x="246.484375"/>
      <use xlink:href="#DejaVuSans-72" x="285.693359"/>
      <use xlink:href="#DejaVuSans-61" x="326.806641"/>
      <use xlink:href="#DejaVuSans-69" x="388.085938"/>
      <use xlink:href="#DejaVuSans-6e" x="415.869141"/>
      <use xlink:href="#DejaVuSans-65" x="479.248047"/>
      <use xlink:href="#DejaVuSans-64" x="540.771484"/>
      <use xlink:href="#DejaVuSans-20" x="604.248047"/>
      <use xlink:href="#DejaVuSans-28" x="636.035156"/>
      <use xlink:href="#DejaVuSans-39" x="675.048828"/>
      <use xlink:href="#DejaVuSans-39" x="738.671875"/>
      <use xlink:href="#DejaVuSans-2e" x="802.294922"/>
      <use xlink:href="#DejaVuSans-37" x="834.082031"/>
      <use xlink:href="#DejaVuSans-39" x="897.705078"/>
      <use xlink:href="#DejaVuSans-25" x="961.328125"/>
      <use xlink:href="#DejaVuSans-20" x="1056.347656"/>
      <use xlink:href="#DejaVuSans-66" x="1088.134766"/>
      <use xlink:href="#DejaVuSans-69" x="1123.339844"/>
      <use xlink:href="#DejaVuSans-74" x="1151.123047"/>
      <use xlink:href="#DejaVuSans-29" x="1190.332031"/>
     </g>
    </g>
    <g id="line2d_25">
     <path d="M 63 106.370937 
L 73 106.370937 
L 83 106.370937 
" style="fill: none; stroke: #ffffff; stroke-opacity: 0.501961; stroke-width: 1.5; stroke-linecap: square"/>
    </g>
    <g id="text_21">
     <!-- Prediction (205° at 5:10) -->
     <g style="fill: #ffffff" transform="translate(91 109.870937)scale(0.1 -0.1)">
      <defs>
       <path id="DejaVuSans-50" d="M 1259 4147 
L 1259 2394 
L 2053 2394 
Q 2494 2394 2734 2622 
Q 2975 2850 2975 3272 
Q 2975 3691 2734 3919 
Q 2494 4147 2053 4147 
L 1259 4147 
z
M 628 4666 
L 2053 4666 
Q 2838 4666 3239 4311 
Q 3641 3956 3641 3272 
Q 3641 2581 3239 2228 
Q 2838 1875 2053 1875 
L 1259 1875 
L 1259 0 
L 628 0 
L 628 4666 
z
" transform="scale(0.015625)"/>
       <path id="DejaVuSans-b0" d="M 1600 4347 
Q 1350 4347 1178 4173 
Q 1006 4000 1006 3750 
Q 1006 3503 1178 3333 
Q 1350 3163 1600 3163 
Q 1850 3163 2022 3333 
Q 2194 3503 2194 3750 
Q 2194 3997 2020 4172 
Q 1847 4347 1600 4347 
z
M 1600 4750 
Q 1800 4750 1984 4673 
Q 2169 4597 2303 4453 
Q 2447 4313 2519 4134 
Q 2591 3956 2591 3750 
Q 2591 3338 2302 3052 
Q 2013 2766 1594 2766 
Q 1172 2766 890 3047 
Q 609 3328 609 3750 
Q 609 4169 896 4459 
Q 1184 4750 1600 4750 
z
" transform="scale(0.015625)"/>
      </defs>
      <use xlink:href="#DejaVuSans-50"/>
      <use xlink:href="#DejaVuSans-72" x="58.552734"/>
      <use xlink:href="#DejaVuSans-65" x="97.416016"/>
      <use xlink:href="#DejaVuSans-64" x="158.939453"/>
      <use xlink:href="#DejaVuSans-69" x="222.416016"/>
      <use xlink:href="#DejaVuSans-63" x="250.199219"/>
      <use xlink:href="#DejaVuSans-74" x="305.179688"/>
      <use xlink:href="#DejaVuSans-69" x="344.388672"/>
      <use xlink:href="#DejaVuSans-6f" x="372.171875"/>
      <use xlink:href="#DejaVuSans-6e" x="433.353516"/>
      <use xlink:href="#DejaVuSans-20" x="496.732422"/>
      <use xlink:href="#DejaVuSans-28" x="528.519531"/>
      <use xlink:href="#DejaVuSans-32" x="567.533203"/>
      <use xlink:href="#DejaVuSans-30" x="631.15625"/>
      <use xlink:href="#DejaVuSans-35" x="694.779297"/>
      <use xlink:href="#DejaVuSans-b0" x="758.402344"/>
      <use xlink:href="#DejaVuSans-20" x="808.402344"/>
      <use xlink:href="#DejaVuSans-61" x="840.189453"/>
      <use xlink:href="#DejaVuSans-74" x="901.46875"/>
      <use xlink:href="#DejaVuSans-20" x="940.677734"/>
      <use xlink:href="#DejaVuSans-35" x="972.464844"/>
      <use xlink:href="#DejaVuSans-3a" x="1036.087891"/>
      <use xlink:href="#DejaVuSans-31" x="1069.779297"/>
      <use xlink:href="#DejaVuSans-30" x="1133.402344"/>
      <use xlink:href="#DejaVuSans-29" x="1197.025391"/>
     </g>
    </g>
   </g>
  </g>
 </g>
 <defs>
  <clipPath id="p6379371dd6">
   <rect x="54" y="34.56" width="334.8" height="217.44"/>
  </clipPath>
 </defs>
</svg>
