<svg xmlns:xlink="http://www.w3.org/1999/xlink" width="800" height="400pt" viewBox="0 0 432 288"
	xmlns="http://www.w3.org/2000/svg">
	<defs />
	<defs>
		<style>
			* {
				stroke-linejoin: round;
				stroke-linecap: butt
			}
		</style>
	</defs>
	<g id="prefix__figure_1">
		<path d="M0 288h432V0H0v288z" fill="none" id="prefix__patch_1" />
		<g id="prefix__axes_1">
			<path d="M54 256.32h334.8V34.56H54z" fill="#fff" id="prefix__patch_2" />
			<g id="prefix__PathCollection_1">
				<defs>
					<path id="prefix__mae44fa7da8" d="M0 1.5a1.5 1.5 0 100-3 1.5 1.5 0 000 3z"
						stroke="#1f77b4" />
				</defs>
				<g clip-path="url(#prefix__p7c44251e10)" fill="#1f77b4" stroke="#1f77b4">
					<use xlink:href="#prefix__mae44fa7da8" x="69.218" y="246.24" />
					<use xlink:href="#prefix__mae44fa7da8" x="69.794" y="245.793" />
					<use xlink:href="#prefix__mae44fa7da8" x="70.37" y="245.347" />
					<use xlink:href="#prefix__mae44fa7da8" x="71.544" y="244.304" />
					<use xlink:href="#prefix__mae44fa7da8" x="72.696" y="243.411" />
					<use xlink:href="#prefix__mae44fa7da8" x="73.272" y="242.964" />
					<use xlink:href="#prefix__mae44fa7da8" x="74.424" y="241.773" />
					<use xlink:href="#prefix__mae44fa7da8" x="75" y="241.326" />
					<use xlink:href="#prefix__mae44fa7da8" x="75.576" y="240.731" />
					<use xlink:href="#prefix__mae44fa7da8" x="76.728" y="239.688" />
					<use xlink:href="#prefix__mae44fa7da8" x="81.357" y="234.626" />
					<use xlink:href="#prefix__mae44fa7da8" x="81.933" y="234.179" />
					<use xlink:href="#prefix__mae44fa7da8" x="83.085" y="232.988" />
					<use xlink:href="#prefix__mae44fa7da8" x="83.661" y="232.392" />
					<use xlink:href="#prefix__mae44fa7da8" x="84.237" y="231.797" />
					<use xlink:href="#prefix__mae44fa7da8" x="84.813" y="231.35" />
					<use xlink:href="#prefix__mae44fa7da8" x="85.389" y="230.755" />
					<use xlink:href="#prefix__mae44fa7da8" x="85.965" y="230.159" />
					<use xlink:href="#prefix__mae44fa7da8" x="88.291" y="227.926" />
					<use xlink:href="#prefix__mae44fa7da8" x="89.443" y="226.734" />
					<use xlink:href="#prefix__mae44fa7da8" x="91.17" y="224.948" />
					<use xlink:href="#prefix__mae44fa7da8" x="92.322" y="223.905" />
					<use xlink:href="#prefix__mae44fa7da8" x="92.898" y="223.459" />
					<use xlink:href="#prefix__mae44fa7da8" x="93.496" y="222.863" />
					<use xlink:href="#prefix__mae44fa7da8" x="94.072" y="222.267" />
					<use xlink:href="#prefix__mae44fa7da8" x="95.224" y="221.076" />
					<use xlink:href="#prefix__mae44fa7da8" x="97.528" y="218.843" />
					<use xlink:href="#prefix__mae44fa7da8" x="98.104" y="218.396" />
					<use xlink:href="#prefix__mae44fa7da8" x="98.68" y="217.949" />
					<use xlink:href="#prefix__mae44fa7da8" x="99.278" y="217.205" />
					<use xlink:href="#prefix__mae44fa7da8" x="102.136" y="214.823" />
					<use xlink:href="#prefix__mae44fa7da8" x="103.287" y="213.78" />
					<use xlink:href="#prefix__mae44fa7da8" x="103.886" y="213.334" />
					<use xlink:href="#prefix__mae44fa7da8" x="104.461" y="212.887" />
					<use xlink:href="#prefix__mae44fa7da8" x="106.189" y="211.547" />
					<use xlink:href="#prefix__mae44fa7da8" x="106.765" y="210.951" />
					<use xlink:href="#prefix__mae44fa7da8" x="107.341" y="210.653" />
					<use xlink:href="#prefix__mae44fa7da8" x="109.091" y="209.164" />
					<use xlink:href="#prefix__mae44fa7da8" x="110.243" y="208.271" />
					<use xlink:href="#prefix__mae44fa7da8" x="110.819" y="207.973" />
					<use xlink:href="#prefix__mae44fa7da8" x="111.395" y="207.527" />
					<use xlink:href="#prefix__mae44fa7da8" x="113.699" y="205.591" />
					<use xlink:href="#prefix__mae44fa7da8" x="114.275" y="205.144" />
					<use xlink:href="#prefix__mae44fa7da8" x="114.851" y="204.697" />
					<use xlink:href="#prefix__mae44fa7da8" x="115.427" y="204.251" />
					<use xlink:href="#prefix__mae44fa7da8" x="117.154" y="202.911" />
					<use xlink:href="#prefix__mae44fa7da8" x="118.328" y="202.166" />
					<use xlink:href="#prefix__mae44fa7da8" x="120.632" y="200.379" />
					<use xlink:href="#prefix__mae44fa7da8" x="121.784" y="199.635" />
					<use xlink:href="#prefix__mae44fa7da8" x="122.36" y="199.039" />
					<use xlink:href="#prefix__mae44fa7da8" x="122.936" y="198.593" />
					<use xlink:href="#prefix__mae44fa7da8" x="123.534" y="198.295" />
					<use xlink:href="#prefix__mae44fa7da8" x="124.664" y="197.401" />
					<use xlink:href="#prefix__mae44fa7da8" x="125.262" y="196.955" />
					<use xlink:href="#prefix__mae44fa7da8" x="125.816" y="196.508" />
					<use xlink:href="#prefix__mae44fa7da8" x="126.968" y="195.764" />
					<use xlink:href="#prefix__mae44fa7da8" x="128.142" y="194.721" />
					<use xlink:href="#prefix__mae44fa7da8" x="128.718" y="194.424" />
					<use xlink:href="#prefix__mae44fa7da8" x="129.869" y="193.53" />
					<use xlink:href="#prefix__mae44fa7da8" x="130.445" y="193.232" />
					<use xlink:href="#prefix__mae44fa7da8" x="132.195" y="192.041" />
					<use xlink:href="#prefix__mae44fa7da8" x="136.249" y="189.212" />
					<use xlink:href="#prefix__mae44fa7da8" x="136.803" y="188.914" />
					<use xlink:href="#prefix__mae44fa7da8" x="137.955" y="188.021" />
					<use xlink:href="#prefix__mae44fa7da8" x="138.553" y="187.872" />
					<use xlink:href="#prefix__mae44fa7da8" x="139.129" y="187.425" />
					<use xlink:href="#prefix__mae44fa7da8" x="140.281" y="186.681" />
					<use xlink:href="#prefix__mae44fa7da8" x="140.857" y="186.234" />
					<use xlink:href="#prefix__mae44fa7da8" x="141.433" y="185.936" />
					<use xlink:href="#prefix__mae44fa7da8" x="142.008" y="185.639" />
					<use xlink:href="#prefix__mae44fa7da8" x="144.91" y="183.703" />
					<use xlink:href="#prefix__mae44fa7da8" x="145.464" y="183.256" />
					<use xlink:href="#prefix__mae44fa7da8" x="147.768" y="181.618" />
					<use xlink:href="#prefix__mae44fa7da8" x="152.42" y="178.789" />
					<use xlink:href="#prefix__mae44fa7da8" x="153.55" y="178.045" />
					<use xlink:href="#prefix__mae44fa7da8" x="156.451" y="176.258" />
					<use xlink:href="#prefix__mae44fa7da8" x="157.603" y="175.662" />
					<use xlink:href="#prefix__mae44fa7da8" x="158.179" y="175.216" />
					<use xlink:href="#prefix__mae44fa7da8" x="158.755" y="174.918" />
					<use xlink:href="#prefix__mae44fa7da8" x="159.331" y="174.62" />
					<use xlink:href="#prefix__mae44fa7da8" x="161.635" y="173.28" />
					<use xlink:href="#prefix__mae44fa7da8" x="164.537" y="171.642" />
					<use xlink:href="#prefix__mae44fa7da8" x="165.113" y="171.195" />
					<use xlink:href="#prefix__mae44fa7da8" x="168.015" y="169.558" />
					<use xlink:href="#prefix__mae44fa7da8" x="169.144" y="168.962" />
					<use xlink:href="#prefix__mae44fa7da8" x="169.742" y="168.515" />
					<use xlink:href="#prefix__mae44fa7da8" x="170.318" y="168.217" />
					<use xlink:href="#prefix__mae44fa7da8" x="172.046" y="167.175" />
					<use xlink:href="#prefix__mae44fa7da8" x="173.774" y="166.133" />
					<use xlink:href="#prefix__mae44fa7da8" x="174.926" y="165.537" />
					<use xlink:href="#prefix__mae44fa7da8" x="175.502" y="165.091" />
					<use xlink:href="#prefix__mae44fa7da8" x="178.382" y="163.751" />
					<use xlink:href="#prefix__mae44fa7da8" x="178.98" y="163.304" />
					<use xlink:href="#prefix__mae44fa7da8" x="180.131" y="162.708" />
					<use xlink:href="#prefix__mae44fa7da8" x="181.283" y="162.113" />
					<use xlink:href="#prefix__mae44fa7da8" x="181.881" y="161.815" />
					<use xlink:href="#prefix__mae44fa7da8" x="183.011" y="161.219" />
					<use xlink:href="#prefix__mae44fa7da8" x="183.609" y="160.922" />
					<use xlink:href="#prefix__mae44fa7da8" x="184.739" y="160.326" />
					<use xlink:href="#prefix__mae44fa7da8" x="185.315" y="160.028" />
					<use xlink:href="#prefix__mae44fa7da8" x="186.489" y="159.433" />
					<use xlink:href="#prefix__mae44fa7da8" x="187.641" y="158.837" />
					<use xlink:href="#prefix__mae44fa7da8" x="188.793" y="158.241" />
					<use xlink:href="#prefix__mae44fa7da8" x="189.369" y="158.092" />
					<use xlink:href="#prefix__mae44fa7da8" x="189.967" y="157.795" />
					<use xlink:href="#prefix__mae44fa7da8" x="190.521" y="157.497" />
					<use xlink:href="#prefix__mae44fa7da8" x="191.097" y="157.05" />
					<use xlink:href="#prefix__mae44fa7da8" x="192.248" y="156.603" />
					<use xlink:href="#prefix__mae44fa7da8" x="192.824" y="156.306" />
					<use xlink:href="#prefix__mae44fa7da8" x="193.4" y="155.859" />
					<use xlink:href="#prefix__mae44fa7da8" x="193.976" y="155.71" />
					<use xlink:href="#prefix__mae44fa7da8" x="194.574" y="155.412" />
					<use xlink:href="#prefix__mae44fa7da8" x="195.726" y="154.817" />
					<use xlink:href="#prefix__mae44fa7da8" x="196.302" y="154.519" />
					<use xlink:href="#prefix__mae44fa7da8" x="197.454" y="154.072" />
					<use xlink:href="#prefix__mae44fa7da8" x="198.606" y="153.477" />
					<use xlink:href="#prefix__mae44fa7da8" x="199.758" y="152.881" />
					<use xlink:href="#prefix__mae44fa7da8" x="200.334" y="152.583" />
					<use xlink:href="#prefix__mae44fa7da8" x="201.508" y="152.137" />
					<use xlink:href="#prefix__mae44fa7da8" x="202.682" y="151.541" />
					<use xlink:href="#prefix__mae44fa7da8" x="204.388" y="150.796" />
					<use xlink:href="#prefix__mae44fa7da8" x="204.963" y="150.499" />
					<use xlink:href="#prefix__mae44fa7da8" x="207.267" y="149.456" />
					<use xlink:href="#prefix__mae44fa7da8" x="208.441" y="149.01" />
					<use xlink:href="#prefix__mae44fa7da8" x="208.995" y="148.861" />
					<use xlink:href="#prefix__mae44fa7da8" x="209.571" y="148.563" />
					<use xlink:href="#prefix__mae44fa7da8" x="210.169" y="148.265" />
				</g>
			</g>
			<g id="prefix__matplotlib_axis_1">
				<g id="prefix__xtick_1">
					<g id="prefix__line2d_1">
						<defs>
							<path id="prefix__m3d669d0b76" d="M0 0v3.5" stroke="#000"
								stroke-width=".8" />
						</defs>
						<use xlink:href="#prefix__m3d669d0b76" x="69.218" y="256.32" stroke="#000"
							stroke-width=".8" />
					</g>
					<g transform="matrix(.1 0 0 -.1 61.267 270.918)" id="prefix__text_1">
						<defs>
							<path id="prefix__DejaVuSans-30"
								d="M2034 4250q-487 0-733-480-245-479-245-1442 0-959 245-1439 246-480 733-480 491 0 736 480 246 480 246 1439 0 963-246 1442-245 480-736 480zm0 500q785 0 1199-621 414-620 414-1801 0-1178-414-1799Q2819-91 2034-91q-784 0-1198 620-414 621-414 1799 0 1181 414 1801 414 621 1198 621z"
								transform="scale(.01563)" />
							<path id="prefix__DejaVuSans-2e" d="M684 794h660V0H684v794z"
								transform="scale(.01563)" />
						</defs>
						<use xlink:href="#prefix__DejaVuSans-30" />
						<use xlink:href="#prefix__DejaVuSans-2e" x="63.623" />
						<use xlink:href="#prefix__DejaVuSans-30" x="95.41" />
					</g>
				</g>
				<g id="prefix__xtick_2">
					<use xlink:href="#prefix__m3d669d0b76" x="109.091" y="256.32" stroke="#000"
						stroke-width=".8" id="prefix__line2d_2" />
					<g transform="matrix(.1 0 0 -.1 101.14 270.918)" id="prefix__text_2">
						<defs>
							<path id="prefix__DejaVuSans-35"
								d="M691 4666h2478v-532H1269V2991q137 47 274 70 138 23 276 23 781 0 1237-428 457-428 457-1159 0-753-469-1171Q2575-91 1722-91q-294 0-599 50Q819 9 494 109v635q281-153 581-228t634-75q541 0 856 284 316 284 316 772 0 487-316 771-315 285-856 285-253 0-505-56-251-56-513-175v2344z"
								transform="scale(.01563)" />
						</defs>
						<use xlink:href="#prefix__DejaVuSans-30" />
						<use xlink:href="#prefix__DejaVuSans-2e" x="63.623" />
						<use xlink:href="#prefix__DejaVuSans-35" x="95.41" />
					</g>
				</g>
				<g id="prefix__xtick_3">
					<use xlink:href="#prefix__m3d669d0b76" x="148.964" y="256.32" stroke="#000"
						stroke-width=".8" id="prefix__line2d_3" />
					<g transform="matrix(.1 0 0 -.1 141.013 270.918)" id="prefix__text_3">
						<defs>
							<path id="prefix__DejaVuSans-31"
								d="M794 531h1031v3560L703 3866v575l1116 225h631V531h1031V0H794v531z"
								transform="scale(.01563)" />
						</defs>
						<use xlink:href="#prefix__DejaVuSans-31" />
						<use xlink:href="#prefix__DejaVuSans-2e" x="63.623" />
						<use xlink:href="#prefix__DejaVuSans-30" x="95.41" />
					</g>
				</g>
				<g id="prefix__xtick_4">
					<use xlink:href="#prefix__m3d669d0b76" x="188.837" y="256.32" stroke="#000"
						stroke-width=".8" id="prefix__line2d_4" />
					<g transform="matrix(.1 0 0 -.1 180.886 270.918)" id="prefix__text_4">
						<use xlink:href="#prefix__DejaVuSans-31" />
						<use xlink:href="#prefix__DejaVuSans-2e" x="63.623" />
						<use xlink:href="#prefix__DejaVuSans-35" x="95.41" />
					</g>
				</g>
				<g id="prefix__xtick_5">
					<use xlink:href="#prefix__m3d669d0b76" x="228.71" y="256.32" stroke="#000"
						stroke-width=".8" id="prefix__line2d_5" />
					<g transform="matrix(.1 0 0 -.1 220.758 270.918)" id="prefix__text_5">
						<defs>
							<path id="prefix__DejaVuSans-32"
								d="M1228 531h2203V0H469v531q359 372 979 998 621 627 780 809 303 340 423 576 121 236 121 464 0 372-261 606-261 235-680 235-297 0-627-103-329-103-704-313v638q381 153 712 231 332 78 607 78 725 0 1156-363 431-362 431-968 0-288-108-546-107-257-392-607-78-91-497-524-418-433-1181-1211z"
								transform="scale(.01563)" />
						</defs>
						<use xlink:href="#prefix__DejaVuSans-32" />
						<use xlink:href="#prefix__DejaVuSans-2e" x="63.623" />
						<use xlink:href="#prefix__DejaVuSans-30" x="95.41" />
					</g>
				</g>
				<g id="prefix__xtick_6">
					<use xlink:href="#prefix__m3d669d0b76" x="268.583" y="256.32" stroke="#000"
						stroke-width=".8" id="prefix__line2d_6" />
					<g transform="matrix(.1 0 0 -.1 260.631 270.918)" id="prefix__text_6">
						<use xlink:href="#prefix__DejaVuSans-32" />
						<use xlink:href="#prefix__DejaVuSans-2e" x="63.623" />
						<use xlink:href="#prefix__DejaVuSans-35" x="95.41" />
					</g>
				</g>
				<g id="prefix__xtick_7">
					<use xlink:href="#prefix__m3d669d0b76" x="308.456" y="256.32" stroke="#000"
						stroke-width=".8" id="prefix__line2d_7" />
					<g transform="matrix(.1 0 0 -.1 300.504 270.918)" id="prefix__text_7">
						<defs>
							<path id="prefix__DejaVuSans-33"
								d="M2597 2516q453-97 707-404 255-306 255-756 0-690-475-1069Q2609-91 1734-91q-293 0-604 58T488 141v609q262-153 574-231 313-78 654-78 593 0 904 234t311 681q0 413-289 645-289 233-804 233h-544v519h569q465 0 712 186t247 536q0 359-255 551-254 193-729 193-260 0-557-57-297-56-653-174v562q360 100 674 150t592 50q719 0 1137-327 419-326 419-882 0-388-222-655t-631-370z"
								transform="scale(.01563)" />
						</defs>
						<use xlink:href="#prefix__DejaVuSans-33" />
						<use xlink:href="#prefix__DejaVuSans-2e" x="63.623" />
						<use xlink:href="#prefix__DejaVuSans-30" x="95.41" />
					</g>
				</g>
				<g id="prefix__xtick_8">
					<use xlink:href="#prefix__m3d669d0b76" x="348.329" y="256.32" stroke="#000"
						stroke-width=".8" id="prefix__line2d_8" />
					<g transform="matrix(.1 0 0 -.1 340.377 270.918)" id="prefix__text_8">
						<use xlink:href="#prefix__DejaVuSans-33" />
						<use xlink:href="#prefix__DejaVuSans-2e" x="63.623" />
						<use xlink:href="#prefix__DejaVuSans-35" x="95.41" />
					</g>
				</g>
				<g id="prefix__xtick_9">
					<use xlink:href="#prefix__m3d669d0b76" x="388.202" y="256.32" stroke="#000"
						stroke-width=".8" id="prefix__line2d_9" />
					<g transform="matrix(.1 0 0 -.1 380.25 270.918)" id="prefix__text_9">
						<defs>
							<path id="prefix__DejaVuSans-34"
								d="M2419 4116L825 1625h1594v2491zm-166 550h794V1625h666v-525h-666V0h-628v1100H313v609l1940 2957z"
								transform="scale(.01563)" />
						</defs>
						<use xlink:href="#prefix__DejaVuSans-34" />
						<use xlink:href="#prefix__DejaVuSans-2e" x="63.623" />
						<use xlink:href="#prefix__DejaVuSans-30" x="95.41" />
					</g>
				</g>
				<g transform="matrix(.1 0 0 -.1 206.752 284.597)" id="prefix__text_10">
					<defs>
						<path id="prefix__DejaVuSans-48"
							d="M628 4666h631V2753h2294v1913h631V0h-631v2222H1259V0H628v4666z"
							transform="scale(.01563)" />
						<path id="prefix__DejaVuSans-6f"
							d="M1959 3097q-462 0-731-361t-269-989q0-628 267-989 268-361 733-361 460 0 728 362 269 363 269 988 0 622-269 986-268 364-728 364zm0 487q750 0 1178-488 429-487 429-1349 0-859-429-1349Q2709-91 1959-91q-753 0-1180 489-426 490-426 1349 0 862 426 1349 427 488 1180 488z"
							transform="scale(.01563)" />
						<path id="prefix__DejaVuSans-75"
							d="M544 1381v2119h575V1403q0-497 193-746 194-248 582-248 465 0 735 297 271 297 271 810v1984h575V0h-575v538q-209-319-486-474-276-155-642-155-603 0-916 375-312 375-312 1097zm1447 2203z"
							transform="scale(.01563)" />
						<path id="prefix__DejaVuSans-72"
							d="M2631 2963q-97 56-211 82-114 27-251 27-488 0-749-317t-261-911V0H581v3500h578v-544q182 319 472 473 291 155 707 155 59 0 131-8 72-7 159-23l3-590z"
							transform="scale(.01563)" />
						<path id="prefix__DejaVuSans-73"
							d="M2834 3397v-544q-243 125-506 187-262 63-544 63-428 0-642-131t-214-394q0-200 153-314t616-217l197-44q612-131 870-370t258-667q0-488-386-773Q2250-91 1575-91q-281 0-586 55T347 128v594q319-166 628-249 309-82 613-82 406 0 624 139 219 139 219 392 0 234-158 359-157 125-692 241l-200 47q-534 112-772 345-237 233-237 639 0 494 350 762 350 269 994 269 318 0 599-47 282-46 519-140z"
							transform="scale(.01563)" />
					</defs>
					<use xlink:href="#prefix__DejaVuSans-48" />
					<use xlink:href="#prefix__DejaVuSans-6f" x="75.195" />
					<use xlink:href="#prefix__DejaVuSans-75" x="136.377" />
					<use xlink:href="#prefix__DejaVuSans-72" x="199.756" />
					<use xlink:href="#prefix__DejaVuSans-73" x="240.869" />
				</g>
			</g>
			<g id="prefix__matplotlib_axis_2">
				<g id="prefix__ytick_1">
					<g id="prefix__line2d_10">
						<defs>
							<path id="prefix__md3ea15bd14" d="M0 0h-3.5" stroke="#000"
								stroke-width=".8" />
						</defs>
						<use xlink:href="#prefix__md3ea15bd14" x="54" y="246.836" stroke="#000"
							stroke-width=".8" />
					</g>
					<g transform="matrix(.1 0 0 -.1 34.275 250.635)" id="prefix__text_11">
						<defs>
							<path id="prefix__DejaVuSans-36"
								d="M2113 2584q-425 0-674-291-248-290-248-796 0-503 248-796 249-292 674-292t673 292q248 293 248 796 0 506-248 796-248 291-673 291zm1253 1979v-575q-238 112-480 171-242 60-480 60-625 0-955-422-329-422-376-1275 184 272 462 417 279 145 613 145 703 0 1111-427 408-426 408-1160 0-719-425-1154Q2819-91 2113-91q-810 0-1238 620-428 621-428 1799 0 1106 525 1764t1409 658q238 0 480-47t505-140z"
								transform="scale(.01563)" />
						</defs>
						<use xlink:href="#prefix__DejaVuSans-36" />
						<use xlink:href="#prefix__DejaVuSans-30" x="63.623" />
					</g>
				</g>
				<g id="prefix__ytick_2">
					<use xlink:href="#prefix__md3ea15bd14" x="54" y="217.056" stroke="#000"
						stroke-width=".8" id="prefix__line2d_11" />
					<g transform="matrix(.1 0 0 -.1 34.275 220.855)" id="prefix__text_12">
						<defs>
							<path id="prefix__DejaVuSans-38"
								d="M2034 2216q-450 0-708-241-257-241-257-662 0-422 257-663 258-241 708-241t709 242q260 243 260 662 0 421-258 662-257 241-711 241zm-631 268q-406 100-633 378-226 279-226 679 0 559 398 884 399 325 1092 325 697 0 1094-325t397-884q0-400-227-679-226-278-629-378 456-106 710-416 255-309 255-755 0-679-414-1042Q2806-91 2034-91q-771 0-1186 362-414 363-414 1042 0 446 256 755 257 310 713 416zm-231 997q0-362 226-565 227-203 636-203 407 0 636 203 230 203 230 565 0 363-230 566-229 203-636 203-409 0-636-203-226-203-226-566z"
								transform="scale(.01563)" />
						</defs>
						<use xlink:href="#prefix__DejaVuSans-38" />
						<use xlink:href="#prefix__DejaVuSans-30" x="63.623" />
					</g>
				</g>
				<g id="prefix__ytick_3">
					<use xlink:href="#prefix__md3ea15bd14" x="54" y="187.276" stroke="#000"
						stroke-width=".8" id="prefix__line2d_12" />
					<g transform="matrix(.1 0 0 -.1 27.913 191.076)" id="prefix__text_13">
						<use xlink:href="#prefix__DejaVuSans-31" />
						<use xlink:href="#prefix__DejaVuSans-30" x="63.623" />
						<use xlink:href="#prefix__DejaVuSans-30" x="127.246" />
					</g>
				</g>
				<g id="prefix__ytick_4">
					<use xlink:href="#prefix__md3ea15bd14" x="54" y="157.497" stroke="#000"
						stroke-width=".8" id="prefix__line2d_13" />
					<g transform="matrix(.1 0 0 -.1 27.913 161.296)" id="prefix__text_14">
						<use xlink:href="#prefix__DejaVuSans-31" />
						<use xlink:href="#prefix__DejaVuSans-32" x="63.623" />
						<use xlink:href="#prefix__DejaVuSans-30" x="127.246" />
					</g>
				</g>
				<g id="prefix__ytick_5">
					<use xlink:href="#prefix__md3ea15bd14" x="54" y="127.717" stroke="#000"
						stroke-width=".8" id="prefix__line2d_14" />
					<g transform="matrix(.1 0 0 -.1 27.913 131.516)" id="prefix__text_15">
						<use xlink:href="#prefix__DejaVuSans-31" />
						<use xlink:href="#prefix__DejaVuSans-34" x="63.623" />
						<use xlink:href="#prefix__DejaVuSans-30" x="127.246" />
					</g>
				</g>
				<g id="prefix__ytick_6">
					<use xlink:href="#prefix__md3ea15bd14" x="54" y="97.938" stroke="#000"
						stroke-width=".8" id="prefix__line2d_15" />
					<g transform="matrix(.1 0 0 -.1 27.913 101.737)" id="prefix__text_16">
						<use xlink:href="#prefix__DejaVuSans-31" />
						<use xlink:href="#prefix__DejaVuSans-36" x="63.623" />
						<use xlink:href="#prefix__DejaVuSans-30" x="127.246" />
					</g>
				</g>
				<g id="prefix__ytick_7">
					<use xlink:href="#prefix__md3ea15bd14" x="54" y="68.158" stroke="#000"
						stroke-width=".8" id="prefix__line2d_16" />
					<g transform="matrix(.1 0 0 -.1 27.913 71.957)" id="prefix__text_17">
						<use xlink:href="#prefix__DejaVuSans-31" />
						<use xlink:href="#prefix__DejaVuSans-38" x="63.623" />
						<use xlink:href="#prefix__DejaVuSans-30" x="127.246" />
					</g>
				</g>
				<g id="prefix__ytick_8">
					<use xlink:href="#prefix__md3ea15bd14" x="54" y="38.379" stroke="#000"
						stroke-width=".8" id="prefix__line2d_17" />
					<g transform="matrix(.1 0 0 -.1 27.913 42.178)" id="prefix__text_18">
						<use xlink:href="#prefix__DejaVuSans-32" />
						<use xlink:href="#prefix__DejaVuSans-30" x="63.623" />
						<use xlink:href="#prefix__DejaVuSans-30" x="127.246" />
					</g>
				</g>
				<g transform="matrix(0 -.1 -.1 0 21.833 194.266)" id="prefix__text_19">
					<defs>
						<path id="prefix__DejaVuSans-44"
							d="M1259 4147V519h763q966 0 1414 437 448 438 448 1382 0 937-448 1373t-1414 436h-763zm-631 519h1297q1356 0 1990-564 635-564 635-1764 0-1207-638-1773Q3275 0 1925 0H628v4666z"
							transform="scale(.01563)" />
						<path id="prefix__DejaVuSans-65"
							d="M3597 1894v-281H953q38-594 358-905t892-311q331 0 642 81t618 244V178Q3153 47 2828-22t-659-69q-838 0-1327 487-489 488-489 1320 0 859 464 1363 464 505 1252 505 706 0 1117-455 411-454 411-1235zm-575 169q-6 471-264 752-258 282-683 282-481 0-770-272t-333-766l2050 4z"
							transform="scale(.01563)" />
						<path id="prefix__DejaVuSans-67"
							d="M2906 1791q0 625-258 968-257 344-723 344-462 0-720-344-258-343-258-968 0-622 258-966t720-344q466 0 723 344 258 344 258 966zm575-1357q0-893-397-1329-396-436-1215-436-303 0-572 45t-522 139v559q253-137 500-202 247-66 503-66 566 0 847 295t281 892v285q-178-310-456-463T1784 0Q1141 0 747 490 353 981 353 1791q0 812 394 1302 394 491 1037 491 388 0 666-153t456-462v531h575V434z"
							transform="scale(.01563)" />
						<path id="prefix__DejaVuSans-46"
							d="M628 4666h2681v-532H1259V2759h1850v-531H1259V0H628v4666z"
							transform="scale(.01563)" />
						<path id="prefix__DejaVuSans-61"
							d="M2194 1759q-697 0-966-159t-269-544q0-306 202-486 202-179 548-179 479 0 768 339t289 901v128h-572zm1147 238V0h-575v531q-197-318-491-470T1556-91q-537 0-855 302-317 302-317 808 0 590 395 890 396 300 1180 300h807v57q0 397-261 614t-733 217q-300 0-585-72-284-72-546-216v532q315 122 612 182 297 61 578 61 760 0 1135-394 375-393 375-1193z"
							transform="scale(.01563)" />
						<path id="prefix__DejaVuSans-68"
							d="M3513 2113V0h-575v2094q0 497-194 743-194 247-581 247-466 0-735-297-269-296-269-809V0H581v4863h578V2956q207 316 486 472 280 156 646 156 603 0 912-373 310-373 310-1098z"
							transform="scale(.01563)" />
						<path id="prefix__DejaVuSans-6e"
							d="M3513 2113V0h-575v2094q0 497-194 743-194 247-581 247-466 0-735-297-269-296-269-809V0H581v3500h578v-544q207 316 486 472 280 156 646 156 603 0 912-373 310-373 310-1098z"
							transform="scale(.01563)" />
						<path id="prefix__DejaVuSans-69"
							d="M603 3500h575V0H603v3500zm0 1363h575v-729H603v729z"
							transform="scale(.01563)" />
						<path id="prefix__DejaVuSans-74"
							d="M1172 4494v-994h1184v-447H1172V1153q0-428 117-550t477-122h590V0h-590q-666 0-919 248-253 249-253 905v1900H172v447h422v994h578z"
							transform="scale(.01563)" />
					</defs>
					<use xlink:href="#prefix__DejaVuSans-44" />
					<use xlink:href="#prefix__DejaVuSans-65" x="77.002" />
					<use xlink:href="#prefix__DejaVuSans-67" x="138.525" />
					<use xlink:href="#prefix__DejaVuSans-72" x="202.002" />
					<use xlink:href="#prefix__DejaVuSans-65" x="240.865" />
					<use xlink:href="#prefix__DejaVuSans-65" x="302.389" />
					<use xlink:href="#prefix__DejaVuSans-73" x="363.912" />
					<use xlink:href="#prefix__DejaVuSans-20" x="416.012" />
					<use xlink:href="#prefix__DejaVuSans-46" x="447.799" />
					<use xlink:href="#prefix__DejaVuSans-61" x="496.193" />
					<use xlink:href="#prefix__DejaVuSans-68" x="557.473" />
					<use xlink:href="#prefix__DejaVuSans-72" x="620.852" />
					<use xlink:href="#prefix__DejaVuSans-65" x="659.715" />
					<use xlink:href="#prefix__DejaVuSans-6e" x="721.238" />
					<use xlink:href="#prefix__DejaVuSans-68" x="784.617" />
					<use xlink:href="#prefix__DejaVuSans-65" x="847.996" />
					<use xlink:href="#prefix__DejaVuSans-69" x="909.52" />
					<use xlink:href="#prefix__DejaVuSans-74" x="937.303" />
				</g>
			</g>
			<path d="M69.218 246.218l1.33-.838 2.657-2.557 11.962-12.012 6.646-6.32 6.645-6.033 6.646-5.753 6.645-5.486 6.646-5.232 7.974-5.963 7.975-5.643 7.975-5.348 7.974-5.078 7.975-4.833 9.303-5.362 9.304-5.104 10.633-5.568 11.962-5.997 14.62-7.068 45.19-21.634 11.961-6.082 10.633-5.667 9.304-5.21 9.303-5.485 7.975-4.951 7.975-5.21 7.974-5.493 7.975-5.8 6.645-5.089 6.646-5.334 6.645-5.596 6.646-5.871 6.645-6.162 6.646-6.468 1.329-1.331h0"
				clip-path="url(#prefix__p7c44251e10)" fill="none" stroke-dasharray="5.55 2.4"
				stroke="#ff7f0e" stroke-width="1.5" id="prefix__line2d_18" />
			<path d="M294.71 256.32V34.56" clip-path="url(#prefix__p7c44251e10)" fill="none" stroke="#000"
				stroke-opacity=".502" stroke-width="1.5" stroke-linecap="square" id="prefix__line2d_19" />
			<path d="M54 105.383h334.8" clip-path="url(#prefix__p7c44251e10)" fill="none" stroke="#000"
				stroke-opacity=".502" stroke-width="1.5" stroke-linecap="square" id="prefix__line2d_20" />
			<path d="M54 256.32V34.56" fill="none" stroke="#000" stroke-width=".8" stroke-linecap="square"
				id="prefix__patch_3" />
			<path d="M388.8 256.32V34.56" fill="none" stroke="#000" stroke-width=".8" stroke-linecap="square"
				id="prefix__patch_4" />
			<path d="M54 256.32h334.8" fill="none" stroke="#000" stroke-width=".8" stroke-linecap="square"
				id="prefix__patch_5" />
			<path d="M54 34.56h334.8" fill="none" stroke="#000" stroke-width=".8" stroke-linecap="square"
				id="prefix__patch_6" />
			<g transform="matrix(.12 0 0 -.12 82.008 28.56)" id="prefix__text_20">
				<defs>
					<path id="prefix__DejaVuSans-4d"
						d="M628 4666h941l1190-3175 1197 3175h941V0h-616v4097L3078 897h-634L1241 4097V0H628v4666z"
						transform="scale(.01563)" />
					<path id="prefix__DejaVuSans-64"
						d="M2906 2969v1894h575V0h-575v525q-181-312-458-464-276-152-664-152-634 0-1033 506-398 507-398 1332t398 1331q399 506 1033 506 388 0 664-152 277-151 458-463zM947 1747q0-634 261-995t717-361q456 0 718 361 263 361 263 995t-263 995q-262 361-718 361t-717-361q-261-361-261-995z"
						transform="scale(.01563)" />
					<path id="prefix__DejaVuSans-45"
						d="M628 4666h2950v-532H1259V2753h2222v-531H1259V531h2375V0H628v4666z"
						transform="scale(.01563)" />
					<path id="prefix__DejaVuSans-78"
						d="M3513 3500L2247 1797 3578 0h-678L1881 1375 863 0H184l1360 1831L300 3500h678l928-1247 928 1247h679z"
						transform="scale(.01563)" />
					<path id="prefix__DejaVuSans-70"
						d="M1159 525v-1856H581v4831h578v-531q182 312 458 463 277 152 661 152 638 0 1036-506 399-506 399-1331T3314 415Q2916-91 2278-91q-384 0-661 152-276 152-458 464zm1957 1222q0 634-261 995t-717 361q-457 0-718-361t-261-995q0-634 261-995t718-361q456 0 717 361t261 995z"
						transform="scale(.01563)" />
					<path id="prefix__DejaVuSans-63"
						d="M3122 3366v-538q-244 135-489 202t-495 67q-560 0-870-355-309-354-309-995t309-996q310-354 870-354 250 0 495 67t489 202V134Q2881 22 2623-34q-257-57-548-57-791 0-1257 497-465 497-465 1341 0 856 470 1346 471 491 1290 491 265 0 518-55 253-54 491-163z"
						transform="scale(.01563)" />
					<path id="prefix__DejaVuSans-54" d="M-19 4666h3947v-532H2272V0h-634v4134H-19v532z"
						transform="scale(.01563)" />
					<path id="prefix__DejaVuSans-6d"
						d="M3328 2828q216 388 516 572t706 184q547 0 844-383 297-382 297-1088V0h-578v2094q0 503-179 746-178 244-543 244-447 0-707-297-259-296-259-809V0h-578v2094q0 506-178 748t-550 242q-441 0-701-298-259-298-259-808V0H581v3500h578v-544q197 322 472 475t653 153q382 0 649-194 267-193 395-562z"
						transform="scale(.01563)" />
					<path id="prefix__DejaVuSans-76"
						d="M191 3500h609L1894 563l1094 2937h609L2284 0h-781L191 3500z"
						transform="scale(.01563)" />
				</defs>
				<use xlink:href="#prefix__DejaVuSans-4d" />
				<use xlink:href="#prefix__DejaVuSans-65" x="86.279" />
				<use xlink:href="#prefix__DejaVuSans-61" x="147.803" />
				<use xlink:href="#prefix__DejaVuSans-73" x="209.082" />
				<use xlink:href="#prefix__DejaVuSans-75" x="261.182" />
				<use xlink:href="#prefix__DejaVuSans-72" x="324.561" />
				<use xlink:href="#prefix__DejaVuSans-65" x="363.424" />
				<use xlink:href="#prefix__DejaVuSans-64" x="424.947" />
				<use xlink:href="#prefix__DejaVuSans-20" x="488.424" />
				<use xlink:href="#prefix__DejaVuSans-61" x="520.211" />
				<use xlink:href="#prefix__DejaVuSans-6e" x="581.49" />
				<use xlink:href="#prefix__DejaVuSans-64" x="644.869" />
				<use xlink:href="#prefix__DejaVuSans-20" x="708.346" />
				<use xlink:href="#prefix__DejaVuSans-45" x="740.133" />
				<use xlink:href="#prefix__DejaVuSans-78" x="803.316" />
				<use xlink:href="#prefix__DejaVuSans-70" x="862.496" />
				<use xlink:href="#prefix__DejaVuSans-65" x="925.973" />
				<use xlink:href="#prefix__DejaVuSans-63" x="987.496" />
				<use xlink:href="#prefix__DejaVuSans-74" x="1042.477" />
				<use xlink:href="#prefix__DejaVuSans-65" x="1081.686" />
				<use xlink:href="#prefix__DejaVuSans-64" x="1143.209" />
				<use xlink:href="#prefix__DejaVuSans-20" x="1206.686" />
				<use xlink:href="#prefix__DejaVuSans-54" x="1238.473" />
				<use xlink:href="#prefix__DejaVuSans-65" x="1282.557" />
				<use xlink:href="#prefix__DejaVuSans-6d" x="1344.08" />
				<use xlink:href="#prefix__DejaVuSans-70" x="1441.492" />
				<use xlink:href="#prefix__DejaVuSans-65" x="1504.969" />
				<use xlink:href="#prefix__DejaVuSans-72" x="1566.492" />
				<use xlink:href="#prefix__DejaVuSans-61" x="1607.605" />
				<use xlink:href="#prefix__DejaVuSans-74" x="1668.885" />
				<use xlink:href="#prefix__DejaVuSans-75" x="1708.094" />
				<use xlink:href="#prefix__DejaVuSans-72" x="1771.473" />
				<use xlink:href="#prefix__DejaVuSans-65" x="1810.336" />
				<use xlink:href="#prefix__DejaVuSans-20" x="1871.859" />
				<use xlink:href="#prefix__DejaVuSans-76" x="1903.646" />
				<use xlink:href="#prefix__DejaVuSans-73" x="1962.826" />
				<use xlink:href="#prefix__DejaVuSans-2e" x="2014.926" />
				<use xlink:href="#prefix__DejaVuSans-20" x="2046.713" />
				<use xlink:href="#prefix__DejaVuSans-54" x="2078.5" />
				<use xlink:href="#prefix__DejaVuSans-69" x="2136.459" />
				<use xlink:href="#prefix__DejaVuSans-6d" x="2164.242" />
				<use xlink:href="#prefix__DejaVuSans-65" x="2261.654" />
			</g>
			<g id="prefix__legend_1">
				<path d="M61 86.594h215.223q2 0 2-2V41.56q0-2-2-2H61q-2 0-2 2v43.034q0 2 2 2z" fill="#fff"
					opacity=".8" stroke="#ccc" id="prefix__patch_7" />
				<use xlink:href="#prefix__mae44fa7da8" x="73" y="48.533" fill="#1f77b4" stroke="#1f77b4"
					id="prefix__PathCollection_2" />
				<g transform="matrix(.1 0 0 -.1 91 51.158)" id="prefix__text_21">
					<use xlink:href="#prefix__DejaVuSans-4d" />
					<use xlink:href="#prefix__DejaVuSans-65" x="86.279" />
					<use xlink:href="#prefix__DejaVuSans-61" x="147.803" />
					<use xlink:href="#prefix__DejaVuSans-73" x="209.082" />
					<use xlink:href="#prefix__DejaVuSans-75" x="261.182" />
					<use xlink:href="#prefix__DejaVuSans-72" x="324.561" />
					<use xlink:href="#prefix__DejaVuSans-65" x="363.424" />
					<use xlink:href="#prefix__DejaVuSans-64" x="424.947" />
				</g>
				<path d="M63 62.337h20" fill="none" stroke-dasharray="5.55 2.4" stroke="#ff7f0e"
					stroke-width="1.5" id="prefix__line2d_21" />
				<g transform="matrix(.1 0 0 -.1 91 65.837)" id="prefix__text_22">
					<defs>
						<path id="prefix__DejaVuSans-28"
							d="M1984 4856q-418-718-622-1422-203-703-203-1425 0-721 205-1429t620-1424h-500Q1016-109 783 600T550 2009q0 697 231 1403 232 707 703 1444h500z"
							transform="scale(.01563)" />
						<path id="prefix__DejaVuSans-2c" d="M750 794h659V256L897-744H494L750 256v538z"
							transform="scale(.01563)" />
						<path id="prefix__DejaVuSans-2d" d="M313 2009h1684v-512H313v512z"
							transform="scale(.01563)" />
						<path id="prefix__DejaVuSans-37"
							d="M525 4666h3000v-269L1831 0h-659l1594 4134H525v532z"
							transform="scale(.01563)" />
						<path id="prefix__DejaVuSans-39"
							d="M703 97v575q238-113 481-172 244-59 479-59 625 0 954 420 330 420 377 1277-181-269-460-413-278-144-615-144-700 0-1108 423-408 424-408 1159 0 718 425 1152 425 435 1131 435 810 0 1236-621 427-620 427-1801 0-1103-524-1761Q2575-91 1691-91q-238 0-482 47Q966 3 703 97zm1256 1978q425 0 673 290 249 291 249 798 0 503-249 795-248 292-673 292t-673-292q-248-292-248-795 0-507 248-798 248-290 673-290z"
							transform="scale(.01563)" />
						<path id="prefix__DejaVuSans-29"
							d="M513 4856h500q468-737 701-1444 233-706 233-1403 0-700-233-1409T1013-844H513q415 716 620 1424t205 1429q0 722-205 1425-205 704-620 1422z"
							transform="scale(.01563)" />
					</defs>
					<use xlink:href="#prefix__DejaVuSans-74" />
					<use xlink:href="#prefix__DejaVuSans-78" x="39.209" />
					<use xlink:href="#prefix__DejaVuSans-28" x="98.389" />
					<use xlink:href="#prefix__DejaVuSans-78" x="137.402" />
					<use xlink:href="#prefix__DejaVuSans-2c" x="196.582" />
					<use xlink:href="#prefix__DejaVuSans-20" x="228.369" />
					<use xlink:href="#prefix__DejaVuSans-31" x="260.156" />
					<use xlink:href="#prefix__DejaVuSans-2e" x="323.779" />
					<use xlink:href="#prefix__DejaVuSans-33" x="355.566" />
					<use xlink:href="#prefix__DejaVuSans-65" x="419.189" />
					<use xlink:href="#prefix__DejaVuSans-2d" x="480.713" />
					<use xlink:href="#prefix__DejaVuSans-35" x="516.797" />
					<use xlink:href="#prefix__DejaVuSans-2c" x="580.42" />
					<use xlink:href="#prefix__DejaVuSans-20" x="612.207" />
					<use xlink:href="#prefix__DejaVuSans-2d" x="643.994" />
					<use xlink:href="#prefix__DejaVuSans-30" x="680.078" />
					<use xlink:href="#prefix__DejaVuSans-2e" x="743.701" />
					<use xlink:href="#prefix__DejaVuSans-30" x="775.488" />
					<use xlink:href="#prefix__DejaVuSans-30" x="839.111" />
					<use xlink:href="#prefix__DejaVuSans-34" x="902.734" />
					<use xlink:href="#prefix__DejaVuSans-37" x="966.357" />
					<use xlink:href="#prefix__DejaVuSans-2c" x="1029.98" />
					<use xlink:href="#prefix__DejaVuSans-20" x="1061.768" />
					<use xlink:href="#prefix__DejaVuSans-30" x="1093.555" />
					<use xlink:href="#prefix__DejaVuSans-2e" x="1157.178" />
					<use xlink:href="#prefix__DejaVuSans-39" x="1188.965" />
					<use xlink:href="#prefix__DejaVuSans-38" x="1252.588" />
					<use xlink:href="#prefix__DejaVuSans-2c" x="1316.211" />
					<use xlink:href="#prefix__DejaVuSans-20" x="1347.998" />
					<use xlink:href="#prefix__DejaVuSans-30" x="1379.785" />
					<use xlink:href="#prefix__DejaVuSans-2e" x="1443.408" />
					<use xlink:href="#prefix__DejaVuSans-38" x="1475.195" />
					<use xlink:href="#prefix__DejaVuSans-33" x="1538.818" />
					<use xlink:href="#prefix__DejaVuSans-2c" x="1602.441" />
					<use xlink:href="#prefix__DejaVuSans-20" x="1634.229" />
					<use xlink:href="#prefix__DejaVuSans-36" x="1666.016" />
					<use xlink:href="#prefix__DejaVuSans-30" x="1729.639" />
					<use xlink:href="#prefix__DejaVuSans-29" x="1793.262" />
				</g>
				<path d="M63 77.015h20" fill="none" stroke="#000" stroke-opacity=".502" stroke-width="1.5"
					stroke-linecap="square" id="prefix__line2d_22" />
				<g transform="matrix(.1 0 0 -.1 91 80.515)" id="prefix__text_23">
					<defs>
						<path id="prefix__DejaVuSans-b0"
							d="M1600 4347q-250 0-422-174-172-173-172-423 0-247 172-417t422-170q250 0 422 170t172 417q0 247-174 422-173 175-420 175zm0 403q200 0 384-77 185-76 319-220 144-140 216-319 72-178 72-384 0-412-289-698t-708-286q-422 0-704 281-281 281-281 703 0 419 287 709 288 291 704 291z"
							transform="scale(.01563)" />
						<path id="prefix__DejaVuSans-3a"
							d="M750 794h659V0H750v794zm0 2515h659v-793H750v793z"
							transform="scale(.01563)" />
					</defs>
					<use xlink:href="#prefix__DejaVuSans-31" />
					<use xlink:href="#prefix__DejaVuSans-35" x="63.623" />
					<use xlink:href="#prefix__DejaVuSans-35" x="127.246" />
					<use xlink:href="#prefix__DejaVuSans-b0" x="190.869" />
					<use xlink:href="#prefix__DejaVuSans-20" x="240.869" />
					<use xlink:href="#prefix__DejaVuSans-61" x="272.656" />
					<use xlink:href="#prefix__DejaVuSans-74" x="333.936" />
					<use xlink:href="#prefix__DejaVuSans-20" x="373.145" />
					<use xlink:href="#prefix__DejaVuSans-32" x="404.932" />
					<use xlink:href="#prefix__DejaVuSans-3a" x="468.555" />
					<use xlink:href="#prefix__DejaVuSans-34" x="502.246" />
					<use xlink:href="#prefix__DejaVuSans-39" x="565.869" />
				</g>
			</g>
		</g>
	</g>
	<defs>
		<clipPath id="prefix__p7c44251e10">
			<path d="M54 34.56h334.8v221.76H54z" />
		</clipPath>
	</defs>
</svg>